<svg xmlns="http://www.w3.org/2000/svg" xmlns:xlink="http://www.w3.org/1999/xlink" width="734.909" height="415.079" viewBox="0 0 734.909 415.079">
  <defs>
    <filter id="Rectángulo_44689" x="248" y="0" width="245" height="119" filterUnits="userSpaceOnUse">
      <feOffset dx="7" dy="7" input="SourceAlpha"/>
      <feGaussianBlur stdDeviation="2.5" result="blur"/>
      <feFlood flood-opacity="0.149"/>
      <feComposite operator="in" in2="blur"/>
      <feComposite in="SourceGraphic"/>
    </filter>
    <filter id="Rectángulo_44687" x="0" y="104" width="245" height="119" filterUnits="userSpaceOnUse">
      <feOffset dx="7" dy="7" input="SourceAlpha"/>
      <feGaussianBlur stdDeviation="2.5" result="blur-2"/>
      <feFlood flood-opacity="0.149"/>
      <feComposite operator="in" in2="blur-2"/>
      <feComposite in="SourceGraphic"/>
    </filter>
    <filter id="Rectángulo_44687-2" x="489.909" y="96.128" width="245" height="137.162" filterUnits="userSpaceOnUse">
      <feOffset dx="7" dy="7" input="SourceAlpha"/>
      <feGaussianBlur stdDeviation="2.5" result="blur-3"/>
      <feFlood flood-opacity="0.149"/>
      <feComposite operator="in" in2="blur-3"/>
      <feComposite in="SourceGraphic"/>
    </filter>
  </defs>
  <g id="Grupo_560328" data-name="Grupo 560328" transform="translate(-389.5 -3668.5)">
    <ellipse id="Elipse_4745" data-name="Elipse 4745" cx="6.889" cy="6.889" rx="6.889" ry="6.889" transform="translate(672.182 3680.125)" fill="#afd5d7"/>
    <path id="Trazado_197992" data-name="Trazado 197992" d="M-8195-7657.114" transform="translate(8854 11560.402)" fill="none" stroke="#707070" stroke-width="1"/>
    <ellipse id="Elipse_4740" data-name="Elipse 4740" cx="114.588" cy="114.588" rx="114.588" ry="114.588" transform="translate(639 3854.403)" fill="#addee2"/>
    <path id="Trazado_198080" data-name="Trazado 198080" d="M9.493,21V6.781h4.58a6.737,6.737,0,0,1,3.389.854,6.006,6.006,0,0,1,2.349,2.412,7.283,7.283,0,0,1,.854,3.491v.654a7.325,7.325,0,0,1-.825,3.5,6.032,6.032,0,0,1-2.324,2.422A6.589,6.589,0,0,1,14.171,21ZM12.921,9.428v8.936h1.191a2.666,2.666,0,0,0,2.266-1.05,5.145,5.145,0,0,0,.791-3.12v-.615a5.1,5.1,0,0,0-.791-3.105,2.713,2.713,0,0,0-2.3-1.045Zm21.543,4.756a8.385,8.385,0,0,1-.771,3.682A5.7,5.7,0,0,1,31.5,20.331a6.1,6.1,0,0,1-3.237.864,6.191,6.191,0,0,1-3.223-.835,5.692,5.692,0,0,1-2.192-2.388,8.144,8.144,0,0,1-.825-3.564v-.8a8.422,8.422,0,0,1,.767-3.687,5.688,5.688,0,0,1,2.2-2.466,6.5,6.5,0,0,1,6.479-.01,5.79,5.79,0,0,1,2.2,2.446,8.18,8.18,0,0,1,.8,3.638Zm-3.486-.6a5.979,5.979,0,0,0-.708-3.218,2.271,2.271,0,0,0-2.026-1.1q-2.578,0-2.725,3.867l-.01,1.045A6.149,6.149,0,0,0,26.2,17.4a2.268,2.268,0,0,0,2.061,1.123,2.24,2.24,0,0,0,2-1.1,5.982,5.982,0,0,0,.713-3.174Zm16.758,2.6a5.193,5.193,0,0,1-.8,2.622,4.833,4.833,0,0,1-2.056,1.763,7,7,0,0,1-3.022.625,5.584,5.584,0,0,1-4.414-1.826,7.54,7.54,0,0,1-1.611-5.156v-.7a8.607,8.607,0,0,1,.728-3.657,5.513,5.513,0,0,1,2.095-2.422,5.844,5.844,0,0,1,3.164-.854,6.129,6.129,0,0,1,4.16,1.362,5.383,5.383,0,0,1,1.787,3.755H44.347a2.547,2.547,0,0,0-.654-1.865,2.691,2.691,0,0,0-1.875-.566,2.048,2.048,0,0,0-1.875.957,6.151,6.151,0,0,0-.625,3.057v1.006a6.806,6.806,0,0,0,.571,3.252,2.091,2.091,0,0,0,1.968.977,2.632,2.632,0,0,0,1.807-.557,2.363,2.363,0,0,0,.664-1.768Zm12.773-9.4v9.307a5.349,5.349,0,0,1-.674,2.739A4.365,4.365,0,0,1,57.9,20.59a6.812,6.812,0,0,1-2.979.605,5.885,5.885,0,0,1-4.092-1.348,4.806,4.806,0,0,1-1.523-3.691V6.781h3.447v9.443q.059,2.334,2.168,2.334a2.1,2.1,0,0,0,1.611-.586,2.739,2.739,0,0,0,.547-1.9V6.781Zm6.641,0,3.174,9.893,3.164-9.893H78V21H74.562V17.68l.332-6.8L71.456,21H69.19L65.743,10.873l.332,6.807V21H62.647V6.781ZM89,14.965H83.6v3.4h6.367V21H80.177V6.781h9.814V9.428H83.6v3H89ZM103.243,21H99.835L94.8,12.152V21H91.368V6.781H94.8l5.029,8.848V6.781h3.418Zm13.33-11.572h-4.268V21h-3.428V9.428h-4.189V6.781h11.885Zm13.213,4.756a8.385,8.385,0,0,1-.771,3.682,5.7,5.7,0,0,1-2.192,2.466,6.1,6.1,0,0,1-3.237.864,6.191,6.191,0,0,1-3.223-.835,5.692,5.692,0,0,1-2.192-2.388,8.144,8.144,0,0,1-.825-3.564v-.8a8.422,8.422,0,0,1,.767-3.687,5.688,5.688,0,0,1,2.2-2.466,6.5,6.5,0,0,1,6.479-.01,5.79,5.79,0,0,1,2.2,2.446,8.18,8.18,0,0,1,.8,3.638Zm-3.486-.6a5.979,5.979,0,0,0-.708-3.218,2.271,2.271,0,0,0-2.026-1.1q-2.578,0-2.725,3.867l-.01,1.045a6.149,6.149,0,0,0,.693,3.213,2.268,2.268,0,0,0,2.061,1.123,2.24,2.24,0,0,0,2-1.1,5.982,5.982,0,0,0,.713-3.174ZM136.534,21V6.781h4.58a6.737,6.737,0,0,1,3.389.854,6.006,6.006,0,0,1,2.349,2.412,7.283,7.283,0,0,1,.854,3.491v.654a7.325,7.325,0,0,1-.825,3.5,6.032,6.032,0,0,1-2.324,2.422,6.589,6.589,0,0,1-3.345.884Zm3.428-11.572v8.936h1.191a2.666,2.666,0,0,0,2.266-1.05,5.145,5.145,0,0,0,.791-3.12v-.615a5.1,5.1,0,0,0-.791-3.105,2.713,2.713,0,0,0-2.3-1.045Zm18.32,5.537h-5.391v3.4h6.367V21h-9.795V6.781h9.814V9.428h-6.387v3h5.391ZM49.762,42.344h-4.7L44.244,45H40.582L45.8,30.781H49.02L54.273,45H50.592ZM45.885,39.7h3.057l-1.533-4.932Zm14.707.273H58.736V45H55.309V30.781h5.6A6.246,6.246,0,0,1,64.859,31.9a3.8,3.8,0,0,1,1.426,3.17,4.616,4.616,0,0,1-.6,2.458,4.263,4.263,0,0,1-1.88,1.58l2.969,5.741V45H63.1Zm-1.855-2.637H60.9a1.946,1.946,0,0,0,1.47-.514,1.987,1.987,0,0,0,.493-1.434,2.01,2.01,0,0,0-.5-1.444,1.928,1.928,0,0,0-1.465-.524H58.736Zm21.123,2.852a5.193,5.193,0,0,1-.8,2.622A4.833,4.833,0,0,1,77,44.57a7,7,0,0,1-3.022.625,5.584,5.584,0,0,1-4.414-1.826,7.54,7.54,0,0,1-1.611-5.156v-.7a8.607,8.607,0,0,1,.728-3.657,5.513,5.513,0,0,1,2.095-2.422,5.844,5.844,0,0,1,3.164-.854,6.129,6.129,0,0,1,4.16,1.362,5.383,5.383,0,0,1,1.787,3.755H76.471a2.547,2.547,0,0,0-.654-1.865,2.691,2.691,0,0,0-1.875-.566,2.048,2.048,0,0,0-1.875.957,6.151,6.151,0,0,0-.625,3.057v1.006a6.806,6.806,0,0,0,.571,3.252,2.091,2.091,0,0,0,1.968.977,2.632,2.632,0,0,0,1.807-.557,2.363,2.363,0,0,0,.664-1.768ZM93.365,45H89.957V39.063H84.908V45H81.48V30.781h3.428v5.645h5.049V30.781h3.408Zm5.82,0H95.768V30.781h3.418Zm7.9-3.867,2.832-10.352h3.828L108.961,45h-3.75l-4.746-14.219h3.8ZM126.7,38.184a8.385,8.385,0,0,1-.771,3.682,5.7,5.7,0,0,1-2.192,2.466,6.1,6.1,0,0,1-3.237.864,6.191,6.191,0,0,1-3.223-.835,5.692,5.692,0,0,1-2.192-2.388,8.144,8.144,0,0,1-.825-3.564v-.8a8.422,8.422,0,0,1,.767-3.687,5.688,5.688,0,0,1,2.2-2.466,6.5,6.5,0,0,1,6.479-.01,5.79,5.79,0,0,1,2.2,2.446,8.18,8.18,0,0,1,.8,3.638Zm-3.486-.6a5.979,5.979,0,0,0-.708-3.218,2.271,2.271,0,0,0-2.026-1.1q-2.578,0-2.725,3.867l-.01,1.045a6.149,6.149,0,0,0,.693,3.213,2.268,2.268,0,0,0,2.061,1.123,2.24,2.24,0,0,0,2-1.1,5.982,5.982,0,0,0,.713-3.174Z" transform="translate(670 3944.403)" fill="#12263f"/>
    <g id="Grupo_560322" data-name="Grupo 560322" transform="translate(7415 11523.5)">
      <g transform="matrix(1, 0, 0, 1, -7025.5, -7855)" filter="url(#Rectángulo_44689)">
        <rect id="Rectángulo_44689-2" data-name="Rectángulo 44689" width="230" height="104" rx="11" transform="translate(248.5 0.5)" fill="#a4c3d8"/>
      </g>
      <g id="Grupo_560270" data-name="Grupo 560270" transform="translate(-7443.343 -11683.511)">
        <text id="Procedencia_Integridad_Autenticidad" data-name="Procedencia
Integridad
Autenticidad" transform="translate(743.808 3841.011)" fill="#12263f" font-size="18" font-family="Roboto-Regular, Roboto"><tspan x="0" y="19">Procedencia</tspan><tspan x="0" y="47">Integridad</tspan><tspan x="0" y="75">Autenticidad</tspan></text>
        <ellipse id="Elipse_4746" data-name="Elipse 4746" cx="4.933" cy="4.933" rx="4.933" ry="4.933" transform="translate(715.343 3876.078)" fill="#12263f"/>
        <ellipse id="Elipse_4747" data-name="Elipse 4747" cx="4.933" cy="4.933" rx="4.933" ry="4.933" transform="translate(715.343 3850.633)" fill="#12263f"/>
        <ellipse id="Elipse_4748" data-name="Elipse 4748" cx="4.933" cy="4.933" rx="4.933" ry="4.933" transform="translate(715.343 3904.038)" fill="#12263f"/>
      </g>
      <path id="Trazado_198067" data-name="Trazado 198067" d="M-6689.966-7750.5v40.143h-11.257l27.707,30.55,27.7-30.55h-10.538V-7750.5Z" transform="translate(11.223)" fill="#a4c3d8"/>
    </g>
    <g id="Grupo_560321" data-name="Grupo 560321" transform="translate(7415 11523.5)">
      <g id="Grupo_147057" data-name="Grupo 147057" transform="translate(-7025.065 -7750.5)">
        <ellipse id="Elipse_4736" data-name="Elipse 4736" cx="6.889" cy="6.889" rx="6.889" ry="6.889" transform="translate(36.369 11.089)" fill="#afd5d7"/>
        <g transform="matrix(1, 0, 0, 1, -0.43, -104.5)" filter="url(#Rectángulo_44687)">
          <rect id="Rectángulo_44687-3" data-name="Rectángulo 44687" width="230" height="104" rx="11" transform="translate(0.5 104.5)" fill="#a4c3d8"/>
        </g>
        <g id="Grupo_560271" data-name="Grupo 560271" transform="translate(-9.303)">
          <text id="Ventanilla_única_Fax_Servicios_postales" data-name="Ventanilla única
Fax
Servicios postales" transform="translate(64.533 11.089)" fill="#12263f" font-size="18" font-family="Roboto-Regular, Roboto"><tspan x="0" y="19">Ventanilla única</tspan><tspan x="0" y="47">Fax</tspan><tspan x="0" y="75">Servicios postales</tspan></text>
          <ellipse id="Elipse_4742" data-name="Elipse 4742" cx="4.933" cy="4.933" rx="4.933" ry="4.933" transform="translate(36.368 46.333)" fill="#12263f"/>
          <ellipse id="Elipse_4743" data-name="Elipse 4743" cx="4.933" cy="4.933" rx="4.933" ry="4.933" transform="translate(36.368 20.889)" fill="#12263f"/>
          <ellipse id="Elipse_4744" data-name="Elipse 4744" cx="4.933" cy="4.933" rx="4.933" ry="4.933" transform="translate(36.368 73)" fill="#12263f"/>
        </g>
      </g>
      <g id="Grupo_560320" data-name="Grupo 560320">
        <path id="Trazado_198068" data-name="Trazado 198068" d="M-6689.966-7750.5v40.143h-11.257l27.707,30.55,27.7-30.55h-10.538V-7750.5Z" transform="matrix(0.616, -0.788, 0.788, 0.616, 3396.254, -8156.384)" fill="#a4c3d8"/>
      </g>
    </g>
    <g id="Grupo_560323" data-name="Grupo 560323" transform="translate(832 3765.128)">
      <g id="Grupo_147057-2" data-name="Grupo 147057" transform="translate(47.909)">
        <ellipse id="Elipse_4736-2" data-name="Elipse 4736" cx="6.889" cy="6.889" rx="6.889" ry="6.889" transform="translate(179.918 11.089)" fill="#afd5d7"/>
        <g transform="matrix(1, 0, 0, 1, -490.41, -96.63)" filter="url(#Rectángulo_44687-2)">
          <rect id="Rectángulo_44687-4" data-name="Rectángulo 44687" width="230" height="122.162" rx="11" transform="translate(490.41 96.63)" fill="#a4c3d8"/>
        </g>
      </g>
      <g id="Grupo_560320-2" data-name="Grupo 560320" transform="translate(4 70.925)">
        <path id="Trazado_198068-2" data-name="Trazado 198068" d="M11.257,70.693V30.55H0L27.707,0,55.4,30.55H44.865V70.693Z" transform="matrix(-0.616, -0.788, 0.788, -0.616, 34.109, 87.181)" fill="#a4c3d8"/>
      </g>
    </g>
    <g id="Grupo_560272" data-name="Grupo 560272" transform="translate(-106.844 -174.789)">
      <text id="Fechas_Datos_del_destinatario_Firmas_Anexos" data-name="Fechas
Datos del destinatario
Firmas
Anexos" transform="translate(1026 3946.433)" fill="#12263f" font-size="18" font-family="Roboto-Regular, Roboto"><tspan x="0" y="19">Fechas</tspan><tspan x="0" y="47">Datos del destinatario</tspan><tspan x="0" y="75">Firmas</tspan><tspan x="0" y="103">Anexos</tspan></text>
      <ellipse id="Elipse_4755" data-name="Elipse 4755" cx="4.933" cy="4.933" rx="4.933" ry="4.933" transform="translate(998.688 3981.418)" fill="#12263f"/>
      <ellipse id="Elipse_4756" data-name="Elipse 4756" cx="4.933" cy="4.933" rx="4.933" ry="4.933" transform="translate(998.688 3954.564)" fill="#12263f"/>
      <ellipse id="Elipse_4757" data-name="Elipse 4757" cx="4.933" cy="4.933" rx="4.933" ry="4.933" transform="translate(998.688 4008.521)" fill="#12263f"/>
      <ellipse id="Elipse_4758" data-name="Elipse 4758" cx="4.933" cy="4.933" rx="4.933" ry="4.933" transform="translate(998.688 4037.343)" fill="#12263f"/>
    </g>
  </g>
</svg>
