<svg xmlns="http://www.w3.org/2000/svg" xmlns:xlink="http://www.w3.org/1999/xlink" width="820.908" height="463.961" viewBox="0 0 820.908 463.961">
  <defs>
    <filter id="Rectángulo_44689" x="277.24" y="0" width="272.119" height="131.263" filterUnits="userSpaceOnUse">
      <feOffset dx="7" dy="7" input="SourceAlpha"/>
      <feGaussianBlur stdDeviation="2.5" result="blur"/>
      <feFlood flood-opacity="0.149"/>
      <feComposite operator="in" in2="blur"/>
      <feComposite in="SourceGraphic"/>
    </filter>
    <filter id="Rectángulo_44687" x="0" y="116.605" width="272.119" height="131.263" filterUnits="userSpaceOnUse">
      <feOffset dx="7" dy="7" input="SourceAlpha"/>
      <feGaussianBlur stdDeviation="2.5" result="blur-2"/>
      <feFlood flood-opacity="0.149"/>
      <feComposite operator="in" in2="blur-2"/>
      <feComposite in="SourceGraphic"/>
    </filter>
    <filter id="Rectángulo_44687-2" x="548.789" y="99.095" width="272.119" height="148.381" filterUnits="userSpaceOnUse">
      <feOffset dx="7" dy="7" input="SourceAlpha"/>
      <feGaussianBlur stdDeviation="2.5" result="blur-3"/>
      <feFlood flood-opacity="0.149"/>
      <feComposite operator="in" in2="blur-3"/>
      <feComposite in="SourceGraphic"/>
    </filter>
  </defs>
  <g id="Grupo_560331" data-name="Grupo 560331" transform="translate(-403.592 -5113.193)">
    <ellipse id="Elipse_5439" data-name="Elipse 5439" cx="7.702" cy="7.702" rx="7.702" ry="7.702" transform="translate(719.543 5126.129)" fill="#afd5d7"/>
    <path id="Trazado_198069" data-name="Trazado 198069" d="M-8195-7657.114" transform="translate(8899.809 13032.72)" fill="none" stroke="#707070" stroke-width="1"/>
    <ellipse id="Elipse_5440" data-name="Elipse 5440" cx="128.098" cy="128.099" rx="128.098" ry="128.099" transform="translate(682.449 5320.957)" fill="#addee2"/>
    <path id="Trazado_198081" data-name="Trazado 198081" d="M33.948,21V6.781h4.58a6.737,6.737,0,0,1,3.389.854,6.006,6.006,0,0,1,2.349,2.412,7.283,7.283,0,0,1,.854,3.491v.654a7.325,7.325,0,0,1-.825,3.5,6.032,6.032,0,0,1-2.324,2.422A6.589,6.589,0,0,1,38.626,21ZM37.376,9.428v8.936h1.191a2.666,2.666,0,0,0,2.266-1.05,5.145,5.145,0,0,0,.791-3.12v-.615a5.1,5.1,0,0,0-.791-3.105,2.713,2.713,0,0,0-2.3-1.045Zm21.543,4.756a8.385,8.385,0,0,1-.771,3.682,5.7,5.7,0,0,1-2.192,2.466,6.1,6.1,0,0,1-3.237.864,6.191,6.191,0,0,1-3.223-.835A5.692,5.692,0,0,1,47.3,17.973a8.144,8.144,0,0,1-.825-3.564v-.8a8.422,8.422,0,0,1,.767-3.687,5.688,5.688,0,0,1,2.2-2.466,6.5,6.5,0,0,1,6.479-.01,5.79,5.79,0,0,1,2.2,2.446,8.18,8.18,0,0,1,.8,3.638Zm-3.486-.6a5.979,5.979,0,0,0-.708-3.218,2.271,2.271,0,0,0-2.026-1.1q-2.578,0-2.725,3.867l-.01,1.045a6.149,6.149,0,0,0,.693,3.213,2.268,2.268,0,0,0,2.061,1.123,2.24,2.24,0,0,0,2-1.1,5.982,5.982,0,0,0,.713-3.174Zm16.758,2.6a5.193,5.193,0,0,1-.8,2.622,4.833,4.833,0,0,1-2.056,1.763,7,7,0,0,1-3.022.625A5.584,5.584,0,0,1,61.9,19.369a7.54,7.54,0,0,1-1.611-5.156v-.7a8.607,8.607,0,0,1,.728-3.657,5.513,5.513,0,0,1,2.095-2.422,5.844,5.844,0,0,1,3.164-.854,6.129,6.129,0,0,1,4.16,1.362,5.383,5.383,0,0,1,1.787,3.755H68.8a2.547,2.547,0,0,0-.654-1.865,2.691,2.691,0,0,0-1.875-.566,2.048,2.048,0,0,0-1.875.957,6.151,6.151,0,0,0-.625,3.057v1.006a6.806,6.806,0,0,0,.571,3.252,2.091,2.091,0,0,0,1.968.977,2.632,2.632,0,0,0,1.807-.557,2.363,2.363,0,0,0,.664-1.768Zm12.773-9.4v9.307a5.349,5.349,0,0,1-.674,2.739,4.365,4.365,0,0,1-1.934,1.763,6.812,6.812,0,0,1-2.979.605,5.885,5.885,0,0,1-4.092-1.348,4.806,4.806,0,0,1-1.523-3.691V6.781H77.21v9.443q.059,2.334,2.168,2.334a2.1,2.1,0,0,0,1.611-.586,2.739,2.739,0,0,0,.547-1.9V6.781Zm6.641,0,3.174,9.893,3.164-9.893h4.512V21H99.016V17.68l.332-6.8L95.911,21H93.645L90.2,10.873l.332,6.807V21H87.1V6.781Zm21.846,8.184h-5.391v3.4h6.367V21h-9.795V6.781h9.814V9.428h-6.387v3h5.391ZM127.7,21H124.29l-5.039-8.848V21h-3.428V6.781h3.428l5.029,8.848V6.781H127.7Zm13.33-11.572h-4.268V21h-3.428V9.428h-4.189V6.781h11.885Zm13.213,4.756a8.385,8.385,0,0,1-.771,3.682,5.7,5.7,0,0,1-2.192,2.466,6.1,6.1,0,0,1-3.237.864,6.191,6.191,0,0,1-3.223-.835,5.692,5.692,0,0,1-2.192-2.388,8.144,8.144,0,0,1-.825-3.564v-.8a8.422,8.422,0,0,1,.767-3.687,5.688,5.688,0,0,1,2.2-2.466,6.5,6.5,0,0,1,6.479-.01,5.79,5.79,0,0,1,2.2,2.446,8.18,8.18,0,0,1,.8,3.638Zm-3.486-.6a5.979,5.979,0,0,0-.708-3.218,2.271,2.271,0,0,0-2.026-1.1q-2.578,0-2.725,3.867l-.01,1.045a6.15,6.15,0,0,0,.693,3.213,2.268,2.268,0,0,0,2.061,1.123,2.24,2.24,0,0,0,2-1.1,5.982,5.982,0,0,0,.713-3.174ZM37.527,38.965H32.137v3.4H38.5V45H28.709V30.781h9.814v2.646H32.137v3h5.391Zm5.8,3.4h5.967V45H39.9V30.781h3.428Zm16.23-3.4H54.168v3.4h6.367V45H50.74V30.781h9.814v2.646H54.168v3h5.391Zm13.877,1.221a5.193,5.193,0,0,1-.8,2.622,4.833,4.833,0,0,1-2.056,1.763,7,7,0,0,1-3.022.625,5.584,5.584,0,0,1-4.414-1.826,7.54,7.54,0,0,1-1.611-5.156v-.7a8.607,8.607,0,0,1,.728-3.657,5.513,5.513,0,0,1,2.095-2.422,5.844,5.844,0,0,1,3.164-.854,6.129,6.129,0,0,1,4.16,1.362,5.383,5.383,0,0,1,1.787,3.755H70.047a2.547,2.547,0,0,0-.654-1.865,2.691,2.691,0,0,0-1.875-.566,2.048,2.048,0,0,0-1.875.957,6.151,6.151,0,0,0-.625,3.057v1.006a6.806,6.806,0,0,0,.571,3.252,2.091,2.091,0,0,0,1.968.977,2.632,2.632,0,0,0,1.807-.557,2.363,2.363,0,0,0,.664-1.768Zm12.5-6.758H81.668V45H78.24V33.428H74.051V30.781H85.935Zm6.729,6.543H90.808V45H87.381V30.781h5.6A6.246,6.246,0,0,1,96.932,31.9a3.8,3.8,0,0,1,1.426,3.17,4.616,4.616,0,0,1-.6,2.458,4.263,4.263,0,0,1-1.88,1.58l2.969,5.741V45H95.174Zm-1.855-2.637h2.168a1.946,1.946,0,0,0,1.47-.514,1.987,1.987,0,0,0,.493-1.434,2.01,2.01,0,0,0-.5-1.444,1.928,1.928,0,0,0-1.465-.524H90.808Zm21.66.85a8.385,8.385,0,0,1-.771,3.682,5.7,5.7,0,0,1-2.192,2.466,6.1,6.1,0,0,1-3.237.864,6.191,6.191,0,0,1-3.223-.835,5.692,5.692,0,0,1-2.192-2.388,8.144,8.144,0,0,1-.825-3.564v-.8a8.422,8.422,0,0,1,.767-3.687,5.688,5.688,0,0,1,2.2-2.466,6.5,6.5,0,0,1,6.479-.01,5.79,5.79,0,0,1,2.2,2.446,8.18,8.18,0,0,1,.8,3.638Zm-3.486-.6a5.979,5.979,0,0,0-.708-3.218,2.271,2.271,0,0,0-2.026-1.1q-2.578,0-2.725,3.867l-.01,1.045a6.149,6.149,0,0,0,.693,3.213,2.268,2.268,0,0,0,2.061,1.123,2.24,2.24,0,0,0,2-1.1,5.982,5.982,0,0,0,.713-3.174ZM126.111,45H122.7l-5.039-8.848V45h-3.428V30.781h3.428l5.029,8.848V30.781h3.418Zm5.82,0h-3.418V30.781h3.418Zm13.887-4.814a5.193,5.193,0,0,1-.8,2.622,4.833,4.833,0,0,1-2.056,1.763,7,7,0,0,1-3.022.625,5.584,5.584,0,0,1-4.414-1.826,7.54,7.54,0,0,1-1.611-5.156v-.7a8.607,8.607,0,0,1,.728-3.657,5.513,5.513,0,0,1,2.095-2.422,5.844,5.844,0,0,1,3.164-.854,6.129,6.129,0,0,1,4.16,1.362,5.383,5.383,0,0,1,1.787,3.755H142.43a2.547,2.547,0,0,0-.654-1.865,2.691,2.691,0,0,0-1.875-.566,2.048,2.048,0,0,0-1.875.957,6.151,6.151,0,0,0-.625,3.057v1.006a6.806,6.806,0,0,0,.571,3.252,2.091,2.091,0,0,0,1.968.977,2.632,2.632,0,0,0,1.807-.557,2.363,2.363,0,0,0,.664-1.768Zm13.662-2a8.385,8.385,0,0,1-.771,3.682,5.7,5.7,0,0,1-2.192,2.466,6.1,6.1,0,0,1-3.237.864,6.191,6.191,0,0,1-3.223-.835,5.692,5.692,0,0,1-2.192-2.388,8.144,8.144,0,0,1-.825-3.564v-.8a8.422,8.422,0,0,1,.767-3.687,5.688,5.688,0,0,1,2.2-2.466,6.5,6.5,0,0,1,6.479-.01,5.79,5.79,0,0,1,2.2,2.446,8.18,8.18,0,0,1,.8,3.638Zm-3.486-.6a5.979,5.979,0,0,0-.708-3.218,2.271,2.271,0,0,0-2.026-1.1q-2.578,0-2.725,3.867l-.01,1.045a6.15,6.15,0,0,0,.693,3.213,2.268,2.268,0,0,0,2.061,1.123,2.24,2.24,0,0,0,2-1.1,5.982,5.982,0,0,0,.713-3.174Z" transform="translate(717.104 5421.568)" fill="#12263f"/>
    <g id="Grupo_560330" data-name="Grupo 560330" transform="translate(681.332 5113.693)">
      <g transform="matrix(1, 0, 0, 1, -277.74, -0.5)" filter="url(#Rectángulo_44689)">
        <rect id="Rectángulo_44689-2" data-name="Rectángulo 44689" width="257.119" height="116.262" rx="11" transform="translate(277.74 0.5)" fill="#a4c3d8"/>
      </g>
      <path id="Trazado_198067" data-name="Trazado 198067" d="M-6688.638-7750.5v44.876h-12.584l30.973,34.152,30.961-34.152h-11.78V-7750.5Z" transform="translate(6798.48 7866.763)" fill="#a4c3d8"/>
    </g>
    <ellipse id="Elipse_4736" data-name="Elipse 4736" cx="7.702" cy="7.702" rx="7.702" ry="7.702" transform="translate(444.674 5242.353)" fill="#afd5d7"/>
    <g id="Grupo_560329" data-name="Grupo 560329" transform="translate(404.092 5230.299)">
      <g transform="matrix(1, 0, 0, 1, -0.5, -117.11)" filter="url(#Rectángulo_44687)">
        <rect id="Rectángulo_44687-3" data-name="Rectángulo 44687" width="257.119" height="116.262" rx="11" transform="translate(0.5 117.11)" fill="#a4c3d8"/>
      </g>
      <g id="Grupo_560320" data-name="Grupo 560320" transform="translate(210.27 66.415)">
        <path id="Trazado_198068" data-name="Trazado 198068" d="M12.584,0V44.877H0L30.973,79.029,61.935,44.877H50.154V0Z" transform="matrix(0.616, -0.788, 0.788, 0.616, 0, 48.805)" fill="#a4c3d8"/>
      </g>
    </g>
    <g id="Grupo_560326" data-name="Grupo 560326" transform="translate(900.441 5212.789)">
      <g id="Grupo_147057" data-name="Grupo 147057" transform="translate(52.44)">
        <ellipse id="Elipse_4736-2" data-name="Elipse 4736" cx="7.702" cy="7.702" rx="7.702" ry="7.702" transform="translate(201.132 12.397)" fill="#afd5d7"/>
        <g transform="matrix(1, 0, 0, 1, -549.29, -99.6)" filter="url(#Rectángulo_44687-2)">
          <rect id="Rectángulo_44687-4" data-name="Rectángulo 44687" width="257.119" height="133.382" rx="11" transform="translate(549.29 99.6)" fill="#a4c3d8"/>
        </g>
      </g>
      <g id="Grupo_560320-2" data-name="Grupo 560320" transform="translate(0 84.302)">
        <path id="Trazado_198068-2" data-name="Trazado 198068" d="M12.584,79.029V34.152H0L30.973,0,61.935,34.152H50.155V79.029Z" transform="matrix(-0.616, -0.788, 0.788, -0.616, 38.131, 97.46)" fill="#a4c3d8"/>
      </g>
    </g>
    <g id="Grupo_560275" data-name="Grupo 560275" transform="translate(437.967 5245.391)">
      <text id="Canales_Virtuales_Paginas_web_Correo_electrónico" data-name="Canales Virtuales
Paginas web
Correo electrónico" transform="translate(28.35)" fill="#12263f" font-size="18" font-family="Roboto-Regular, Roboto"><tspan x="0" y="19">Canales Virtuales</tspan><tspan x="0" y="47">Paginas web</tspan><tspan x="0" y="75">Correo electrónico</tspan></text>
      <ellipse id="Elipse_4742" data-name="Elipse 4742" cx="5.601" cy="5.601" rx="5.601" ry="5.601" transform="translate(0 39.116)" fill="#12263f"/>
      <ellipse id="Elipse_4743" data-name="Elipse 4743" cx="5.601" cy="5.601" rx="5.601" ry="5.601" transform="translate(0 10.23)" fill="#12263f"/>
      <ellipse id="Elipse_4744" data-name="Elipse 4744" cx="5.601" cy="5.601" rx="5.601" ry="5.601" transform="translate(0 69.389)" fill="#12263f"/>
    </g>
    <g id="Grupo_560274" data-name="Grupo 560274" transform="translate(734.946 5126.129)">
      <text id="Disponibilidad_Integridad_Autenticidad" data-name="Disponibilidad
Integridad
Autenticidad" transform="translate(30.587 0)" fill="#12263f" font-size="18" font-family="Roboto-Regular, Roboto"><tspan x="0" y="19">Disponibilidad</tspan><tspan x="0" y="47">Integridad</tspan><tspan x="0" y="75">Autenticidad</tspan></text>
      <ellipse id="Elipse_4746" data-name="Elipse 4746" cx="5.601" cy="5.601" rx="5.601" ry="5.601" transform="translate(0 36.129)" fill="#12263f"/>
      <ellipse id="Elipse_4747" data-name="Elipse 4747" cx="5.601" cy="5.601" rx="5.601" ry="5.601" transform="translate(0 7.244)" fill="#12263f"/>
      <ellipse id="Elipse_4748" data-name="Elipse 4748" cx="5.601" cy="5.601" rx="5.601" ry="5.601" transform="translate(0 66.402)" fill="#12263f"/>
    </g>
    <text id="Metadatos_Foliado_Electrónico_Backups_de_seguridad_Expediente_electrónico_" data-name="Metadatos
Foliado Electrónico
Backups de seguridad
Expediente electrónico " transform="translate(995.479 5225.679)" fill="#12263f" font-size="18" font-family="Roboto-Regular, Roboto"><tspan x="0" y="19">Metadatos</tspan><tspan x="0" y="47">Foliado Electrónico</tspan><tspan x="0" y="75">Backups de seguridad</tspan><tspan x="0" y="103">Expediente electrónico </tspan></text>
    <ellipse id="Elipse_4755" data-name="Elipse 4755" cx="5.601" cy="5.601" rx="5.601" ry="5.601" transform="translate(972.727 5259.69)" fill="#12263f"/>
    <ellipse id="Elipse_4756" data-name="Elipse 4756" cx="5.601" cy="5.601" rx="5.601" ry="5.601" transform="translate(972.727 5235.694)" fill="#12263f"/>
    <ellipse id="Elipse_4757" data-name="Elipse 4757" cx="5.601" cy="5.601" rx="5.601" ry="5.601" transform="translate(972.727 5288.963)" fill="#12263f"/>
    <ellipse id="Elipse_5448" data-name="Elipse 5448" cx="5.601" cy="5.601" rx="5.601" ry="5.601" transform="translate(972.727 5317.963)" fill="#12263f"/>
  </g>
</svg>
