<svg xmlns="http://www.w3.org/2000/svg" xmlns:xlink="http://www.w3.org/1999/xlink" width="400" height="257" viewBox="0 0 400 257">
  <defs>
    <clipPath id="clip-path">
      <rect id="Rectángulo_35529" data-name="Rectángulo 35529" width="400" height="257" transform="translate(211 15493)" fill="#fff" stroke="#707070" stroke-width="1"/>
    </clipPath>
  </defs>
  <g id="Enmascarar_grupo_79992" data-name="Enmascarar grupo 79992" transform="translate(-211 -15493)" clip-path="url(#clip-path)">
    <g id="Grupo_134426" data-name="Grupo 134426" transform="translate(268.622 15587.256)">
      <g id="Grupo_134424" data-name="Grupo 134424" transform="translate(186.669)">
        <path id="Trazado_151111" data-name="Trazado 151111" d="M417.224,263.736l-9.73-4.712v-3.2a10.907,10.907,0,0,0-10.907-10.907H321.226a10.907,10.907,0,0,0-10.907,10.907v36.695a10.907,10.907,0,0,0,10.907,10.907h75.362a10.907,10.907,0,0,0,10.907-10.907V267.3Z" transform="translate(-310.319 -244.912)" fill="#eaeaea"/>
      </g>
      <g id="Grupo_134425" data-name="Grupo 134425" transform="translate(0 90.799)">
        <path id="Trazado_151112" data-name="Trazado 151112" d="M153.926,391.809,144.2,387.1v-3.2a10.907,10.907,0,0,0-10.907-10.907H57.928a10.907,10.907,0,0,0-10.907,10.907v36.7a10.907,10.907,0,0,0,10.907,10.907h75.361A10.907,10.907,0,0,0,144.2,420.587V395.369Z" transform="translate(-47.021 -372.985)" fill="#eaeaea"/>
      </g>
      <path id="Trazado_151113" data-name="Trazado 151113" d="M455.128,330.552l1.566,3.174,3.5.509-2.535,2.471.6,3.489-3.133-1.647-3.133,1.647.6-3.489-2.535-2.471,3.5-.509Z" transform="translate(-164.319 -269.836)" fill="#eaeaea"/>
      <path id="Trazado_151114" data-name="Trazado 151114" d="M69.606,245.708l1.567,3.174,3.5.509-2.535,2.471.6,3.489L69.606,253.7l-3.133,1.647.6-3.489-2.535-2.471,3.5-.509Z" transform="translate(-52.119 -245.144)" fill="#eaeaea"/>
      <path id="Trazado_151115" data-name="Trazado 151115" d="M87.16,245.708l1.567,3.174,3.5.509-2.535,2.471.6,3.489L87.16,253.7l-3.133,1.647.6-3.489-2.535-2.471,3.5-.509Z" transform="translate(-57.227 -245.144)" fill="#eaeaea"/>
    </g>
    <g id="Grupo_134429" data-name="Grupo 134429" transform="translate(237.134 15547.964)">
      <path id="Trazado_151119" data-name="Trazado 151119" d="M409.238,60.107l-6.076-2.943v-2a6.811,6.811,0,0,0-6.811-6.811H349.29a6.811,6.811,0,0,0-6.811,6.811V78.077a6.811,6.811,0,0,0,6.811,6.811h47.061a6.811,6.811,0,0,0,6.811-6.811V62.33Z" transform="translate(-342.479 -48.351)" fill="#4b87b2"/>
      <g id="Grupo_136995" data-name="Grupo 136995" transform="translate(31.96 5.704)">
        <g id="Grupo_136989" data-name="Grupo 136989" transform="translate(0 0)">
          <path id="Trazado_151721" data-name="Trazado 151721" d="M1398.653,2148.412h18.5a.425.425,0,0,0,.425-.425v-19.842a.426.426,0,0,0-.425-.425h-3.495v-4.012a.425.425,0,0,0-.425-.425h-14.579a.425.425,0,0,0-.425.425v24.278A.425.425,0,0,0,1398.653,2148.412Zm18.074-.85h-17.649v-23.428h13.729v4.011a.425.425,0,0,0,.425.425h3.495Z" transform="translate(-1398.228 -2123.284)" fill="#fff"/>
        </g>
        <g id="Grupo_136990" data-name="Grupo 136990" transform="translate(3.746 9.097)">
          <path id="Trazado_151722" data-name="Trazado 151722" d="M1418.011,2177.633h11.461a.425.425,0,1,0,0-.85h-11.461a.425.425,0,1,0,0,.85Z" transform="translate(-1417.586 -2176.782)" fill="#fff"/>
        </g>
        <g id="Grupo_136991" data-name="Grupo 136991" transform="translate(3.746 11.661)">
          <path id="Trazado_151723" data-name="Trazado 151723" d="M1418.011,2192.706h11.461a.425.425,0,0,0,0-.85h-11.461a.425.425,0,1,0,0,.85Z" transform="translate(-1417.586 -2191.855)" fill="#fff"/>
        </g>
        <g id="Grupo_136992" data-name="Grupo 136992" transform="translate(3.746 14.023)">
          <path id="Trazado_151724" data-name="Trazado 151724" d="M1418.011,2206.6h11.461a.425.425,0,0,0,0-.85h-11.461a.425.425,0,1,0,0,.85Z" transform="translate(-1417.586 -2205.749)" fill="#fff"/>
        </g>
        <g id="Grupo_136993" data-name="Grupo 136993" transform="translate(3.452 16.487)">
          <path id="Trazado_151725" data-name="Trazado 151725" d="M1418.952,2221.086h11.6a.425.425,0,0,0,0-.85h-11.6a.425.425,0,1,0,0,.85Z" transform="translate(-1418.527 -2220.235)" fill="#fff"/>
        </g>
        <g id="Grupo_136994" data-name="Grupo 136994" transform="translate(14.579)">
          <path id="Trazado_151726" data-name="Trazado 151726" d="M1402.574,2128.57a.425.425,0,0,0,.318-.706l-3.92-4.437a.425.425,0,0,0-.637.563l3.92,4.437A.425.425,0,0,0,1402.574,2128.57Z" transform="translate(-1398.228 -2123.283)" fill="#fff"/>
        </g>
      </g>
      <g id="Grupo_136996" data-name="Grupo 136996" transform="translate(9.445 5.704)">
        <g id="Grupo_136989-2" data-name="Grupo 136989" transform="translate(0 0)">
          <path id="Trazado_151721-2" data-name="Trazado 151721" d="M1398.653,2148.412h18.5a.425.425,0,0,0,.425-.425v-19.842a.426.426,0,0,0-.425-.425h-3.495v-4.012a.425.425,0,0,0-.425-.425h-14.579a.425.425,0,0,0-.425.425v24.278A.425.425,0,0,0,1398.653,2148.412Zm18.074-.85h-17.649v-23.428h13.729v4.011a.425.425,0,0,0,.425.425h3.495Z" transform="translate(-1398.228 -2123.284)" fill="#fff"/>
        </g>
        <g id="Grupo_136990-2" data-name="Grupo 136990" transform="translate(3.746 9.097)">
          <path id="Trazado_151722-2" data-name="Trazado 151722" d="M1418.011,2177.633h11.461a.425.425,0,1,0,0-.85h-11.461a.425.425,0,1,0,0,.85Z" transform="translate(-1417.586 -2176.782)" fill="#fff"/>
        </g>
        <g id="Grupo_136991-2" data-name="Grupo 136991" transform="translate(3.746 11.661)">
          <path id="Trazado_151723-2" data-name="Trazado 151723" d="M1418.011,2192.706h11.461a.425.425,0,0,0,0-.85h-11.461a.425.425,0,1,0,0,.85Z" transform="translate(-1417.586 -2191.855)" fill="#fff"/>
        </g>
        <g id="Grupo_136992-2" data-name="Grupo 136992" transform="translate(3.746 14.023)">
          <path id="Trazado_151724-2" data-name="Trazado 151724" d="M1418.011,2206.6h11.461a.425.425,0,0,0,0-.85h-11.461a.425.425,0,1,0,0,.85Z" transform="translate(-1417.586 -2205.749)" fill="#fff"/>
        </g>
        <g id="Grupo_136993-2" data-name="Grupo 136993" transform="translate(3.452 16.487)">
          <path id="Trazado_151725-2" data-name="Trazado 151725" d="M1418.952,2221.086h11.6a.425.425,0,0,0,0-.85h-11.6a.425.425,0,1,0,0,.85Z" transform="translate(-1418.527 -2220.235)" fill="#fff"/>
        </g>
        <g id="Grupo_136994-2" data-name="Grupo 136994" transform="translate(14.579)">
          <path id="Trazado_151726-2" data-name="Trazado 151726" d="M1402.574,2128.57a.425.425,0,0,0,.318-.706l-3.92-4.437a.425.425,0,0,0-.637.563l3.92,4.437A.425.425,0,0,0,1402.574,2128.57Z" transform="translate(-1398.228 -2123.283)" fill="#fff"/>
        </g>
      </g>
    </g>
    <g id="Grupo_134432" data-name="Grupo 134432" transform="translate(418.663 15542.511)">
      <path id="Trazado_151125" data-name="Trazado 151125" d="M342.479,125.663l6.215-3.01v-2.047a6.965,6.965,0,0,1,6.966-6.965h12.406a6.966,6.966,0,0,1,6.966,6.965v11.117a6.966,6.966,0,0,1-6.966,6.966H355.659a6.966,6.966,0,0,1-6.966-6.966v-3.787Z" transform="translate(-342.479 -113.641)" fill="#4b87b2"/>
      <g id="Grupo_134431" data-name="Grupo 134431" transform="translate(12.927 6.903)">
        <path id="Trazado_151126" data-name="Trazado 151126" d="M363.989,130.749a5.621,5.621,0,1,0,5.621-5.621A5.62,5.62,0,0,0,363.989,130.749Z" transform="translate(-363.989 -125.128)" fill="none" stroke="#fff" stroke-linecap="round" stroke-linejoin="round" stroke-width="1.025"/>
        <path id="Trazado_151127" data-name="Trazado 151127" d="M374.254,139.141a19,19,0,0,0-5.432-.016" transform="translate(-365.918 -130.639)" fill="none" stroke="#fff" stroke-linecap="round" stroke-linejoin="round" stroke-width="1.025"/>
        <g id="Grupo_134430" data-name="Grupo 134430" transform="translate(2.425 3.311)">
          <path id="Trazado_151128" data-name="Trazado 151128" d="M374.772,131.8a1.168,1.168,0,1,0,1.168-1.168A1.168,1.168,0,0,0,374.772,131.8Z" transform="translate(-370.717 -130.637)" fill="#fff"/>
          <path id="Trazado_151129" data-name="Trazado 151129" d="M368.025,131.8a1.168,1.168,0,1,0,1.168-1.168A1.168,1.168,0,0,0,368.025,131.8Z" transform="translate(-368.025 -130.637)" fill="#fff"/>
        </g>
      </g>
    </g>
    <g id="Grupo_134436" data-name="Grupo 134436" transform="translate(473.215 15560.78)">
      <path id="Trazado_151130" data-name="Trazado 151130" d="M399.233,125.663l6.214-3.01v-2.047a6.966,6.966,0,0,1,6.966-6.965h12.406a6.965,6.965,0,0,1,6.966,6.965v11.117a6.966,6.966,0,0,1-6.966,6.966H412.413a6.966,6.966,0,0,1-6.966-6.966v-3.787Z" transform="translate(-399.233 -113.641)" fill="#4b87b2"/>
      <g id="Grupo_134435" data-name="Grupo 134435" transform="translate(12.926 6.903)">
        <path id="Trazado_151131" data-name="Trazado 151131" d="M420.742,130.749a5.621,5.621,0,1,0,5.621-5.621A5.621,5.621,0,0,0,420.742,130.749Z" transform="translate(-420.742 -125.128)" fill="none" stroke="#fff" stroke-linecap="round" stroke-linejoin="round" stroke-width="1.025"/>
        <path id="Trazado_151132" data-name="Trazado 151132" d="M431.008,139.141a18.994,18.994,0,0,0-5.432-.016" transform="translate(-422.671 -130.639)" fill="none" stroke="#fff" stroke-linecap="round" stroke-linejoin="round" stroke-width="1.025"/>
        <g id="Grupo_134433" data-name="Grupo 134433" transform="translate(6.342 3.311)">
          <path id="Trazado_151133" data-name="Trazado 151133" d="M431.433,131.8c-.514.389.523,1.168,1.168,1.168a1.168,1.168,0,1,0,0-2.335C431.957,130.637,431.815,131.516,431.433,131.8Z" transform="translate(-431.295 -130.637)" fill="#fff"/>
        </g>
        <g id="Grupo_134434" data-name="Grupo 134434" transform="translate(2.335 3.311)">
          <path id="Trazado_151134" data-name="Trazado 151134" d="M426.963,131.8c.515.389-.523,1.168-1.168,1.168a1.168,1.168,0,1,1,0-2.335C426.441,130.637,426.581,131.516,426.963,131.8Z" transform="translate(-424.628 -130.637)" fill="#fff"/>
        </g>
      </g>
    </g>
    <g id="Grupo_134454" data-name="Grupo 134454" transform="translate(260.622 15501.147)">
      <g id="Grupo_134437" data-name="Grupo 134437" transform="translate(0)">
        <path id="Trazado_151135" data-name="Trazado 151135" d="M108.194,199.322l-4.624-2.24v-1.523a5.184,5.184,0,0,0-5.184-5.184H62.567a5.184,5.184,0,0,0-5.184,5.184V213a5.184,5.184,0,0,0,5.184,5.184H98.385A5.184,5.184,0,0,0,103.569,213V201.014Z" transform="translate(-57.383 -190.375)" fill="#4b87b2"/>
        <path id="Trazado_151136" data-name="Trazado 151136" d="M78,211.879A3.883,3.883,0,1,1,74.119,208,3.883,3.883,0,0,1,78,211.879Z" transform="translate(-62.512 -197.407)" fill="#fff"/>
        <path id="Trazado_151137" data-name="Trazado 151137" d="M96.544,211.879A3.883,3.883,0,1,1,92.662,208,3.882,3.882,0,0,1,96.544,211.879Z" transform="translate(-69.911 -197.407)" fill="#fff"/>
        <path id="Trazado_151138" data-name="Trazado 151138" d="M115.087,211.879A3.883,3.883,0,1,1,111.2,208,3.883,3.883,0,0,1,115.087,211.879Z" transform="translate(-77.31 -197.407)" fill="#fff"/>
      </g>
    </g>
    <g id="Grupo_136723" data-name="Grupo 136723" transform="translate(312.375 15501.147)">
      <g id="Grupo_136723-2" data-name="Grupo 136723" transform="translate(0.051)">
        <path id="Trazado_151648" data-name="Trazado 151648" d="M287.59,66.888c-17.159-13-41.783-11.7-50.856,7.821a26.232,26.232,0,0,0-1.642,4.567c-3.79,14.824,7.327,15.819-5.27,24.56s-18.775,12.024-20.109,20.144c-2.356,14.343,14.731,10.778-2.827,23.13s-21.087,24.345-15.956,34.418c9.029,17.727,21.09-1.739,27.116,20.514.037.134.073.267.11.4a14.182,14.182,0,0,0,25.9,3.35c5.1-8.729,10.27-17,20.339-11.262,18.6,10.61,23.91,29.814,37.433,15.6s1.767-23.651,12.065-32.021,2.069-25.161-8.81-31.6-24.846-7.518-18.368-15.441,9.171-13.112,5.7-19.3.578-5.564,2.031-14.964C295.292,91.331,298.045,74.807,287.59,66.888Z" transform="translate(-188.772 -58.365)" fill="#181709"/>
      </g>
      <g id="Grupo_136730" data-name="Grupo 136730" transform="translate(89.898 81.958)">
        <g id="Grupo_136725" data-name="Grupo 136725">
          <g id="Grupo_136724" data-name="Grupo 136724">
            <path id="Trazado_151649" data-name="Trazado 151649" d="M269.354,225.976q3.809-4.238,7.376-8.657,4.246-5.257,8.12-10.752c2.578-3.659,5.03-7.385,7.315-11.164,1.143-1.889,2.242-3.794,3.283-5.695l.2-.363c-.271-.569-.564-1.165-.877-1.768-1.125-2.165-2.491-4.451-3.933-6.735-2.916-4.582-6.2-9.192-9.6-13.748s-6.963-9.082-10.6-13.555q-2.724-3.359-5.508-6.673l-2.791-3.3-1.4-1.632-1.374-1.581-.1-.117a12.132,12.132,0,0,1,18.321-15.908l1.53,1.76,1.479,1.725,2.922,3.456q2.907,3.464,5.759,6.974c3.8,4.683,7.539,9.438,11.2,14.326s7.226,9.9,10.646,15.273c1.707,2.7,3.377,5.48,4.977,8.551.8,1.539,1.58,3.149,2.325,4.94a37.118,37.118,0,0,1,2.034,6.324A11.809,11.809,0,0,1,319.444,196l-.049.086c-.1.163-.133.214-.194.31l-.159.237-.3.443-.58.833c-.385.543-.767,1.069-1.151,1.588-.763,1.041-1.533,2.051-2.31,3.044q-2.33,2.983-4.744,5.812c-3.218,3.781-6.553,7.406-9.984,10.914s-6.968,6.883-10.6,10.134-7.337,6.37-11.138,9.368Z" transform="translate(-256.501 -120.147)" fill="#c9614d"/>
          </g>
        </g>
        <g id="Grupo_136727" data-name="Grupo 136727" transform="translate(38.676 64.739)">
          <g id="Grupo_136726" data-name="Grupo 136726">
            <path id="Trazado_151650" data-name="Trazado 151650" d="M295.14,169.867a14.006,14.006,0,0,0-8.694,3.81c-.43.4-1.079-.243-.647-.649a15.016,15.016,0,0,1,9.342-4.078c.588-.041.586.876,0,.917Z" transform="translate(-285.656 -168.949)" fill="#722324"/>
          </g>
        </g>
        <g id="Grupo_136729" data-name="Grupo 136729" transform="translate(40.747 61.742)">
          <g id="Grupo_136728" data-name="Grupo 136728">
            <path id="Trazado_151651" data-name="Trazado 151651" d="M291.365,167.361l-3.278,4.875c-.328.486-1.121.028-.791-.463l3.277-4.875c.328-.487,1.122-.029.792.463Z" transform="translate(-287.218 -166.69)" fill="#722324"/>
          </g>
        </g>
      </g>
      <g id="Grupo_136766" data-name="Grupo 136766" transform="translate(29.086 72.951)">
        <g id="Grupo_136737" data-name="Grupo 136737">
          <g id="Grupo_136736" data-name="Grupo 136736">
            <g id="Grupo_136735" data-name="Grupo 136735">
              <g id="Grupo_136734" data-name="Grupo 136734">
                <g id="Grupo_136733" data-name="Grupo 136733">
                  <g id="Grupo_136732" data-name="Grupo 136732">
                    <g id="Grupo_136731" data-name="Grupo 136731">
                      <path id="Trazado_151652" data-name="Trazado 151652" d="M310.176,264.32s-13.234.678-33.322-5.008c-.276-.077-.553-.155-.833-.237a163.8,163.8,0,0,1-22.65-8.437l-.768-.354a180.178,180.178,0,0,1-19-10.248,60.464,60.464,0,0,0,3.427-8q.157-.436.31-.894a63.157,63.157,0,0,0,3.2-14.942c.021-.275.041-.549.057-.822a45.167,45.167,0,0,0-.074-7.08,33.411,33.411,0,0,0-.712-4.306c-.06-.269-.123-.54-.191-.814q-.261-1.077-.588-2.2a121.919,121.919,0,0,0-7.112-17.772c-.123-.255-.247-.512-.37-.769-2.388-4.945-5.01-9.925-7.56-14.593-.137-.247-.271-.493-.4-.738-1.946-3.541-3.838-6.89-5.542-9.895-.182-.314-.359-.627-.535-.934-.393-.691-.773-1.365-1.143-2.015-.389-.685-.769-1.342-1.137-1.973l-.431-.735c-1.951-3.324-3.466-5.792-3.687-7.159-.178-1.129-.337-2.3-.41-3.484-.02-.288-.033-.578-.041-.866a18.052,18.052,0,0,1,.068-2.14c.033-.362.08-.722.143-1.084a12.538,12.538,0,0,1,.561-2.162,9.916,9.916,0,0,1,.447-1.08,15.15,15.15,0,0,1,6.318-6.491c.235-.142.482-.281.734-.422.334-.186.686-.37,1.048-.551s.767-.373,1.173-.557c.923-.413,1.921-.816,3-1.2a53.464,53.464,0,0,0,9.4-4.272c.329-.188.639-.381.938-.572a27.621,27.621,0,0,0,2.913-2.1c.223-.18.431-.362.627-.537a10.575,10.575,0,0,0,2.873-3.522l15.921,1.856,1.036.121,9.062,1.055a43.559,43.559,0,0,0,7.8,3.728q.647.223,1.3.411c.545.157,1.09.3,1.633.406.324.068.645.126.962.17.37.057.738.1,1.1.121,3.793.241,7.029.26,9.247,2.185a6.368,6.368,0,0,1,.789.821,9.455,9.455,0,0,1,1.681,3.594c.088.332.158.663.219,1,.019.1.036.2.052.3.031.174.054.349.08.521.025.19.046.378.066.568a52.022,52.022,0,0,1-.236,8.422,22.284,22.284,0,0,0-.005,3.484c.028.283.062.557.113.822a5.476,5.476,0,0,0,.959,2.368c1.412,1.872,4,4.156,6.073,7.231.085.126.17.252.252.383.141.216.275.435.406.661.056.088.108.175.162.268a16.789,16.789,0,0,1,2.146,6.175c.019.141.036.28.049.423.023.194.038.389.052.589.007.08.012.159.012.241a14.919,14.919,0,0,1,.008,1.636,23.389,23.389,0,0,1-.886,5.239c-.088.342-.191.679-.293,1.024-.334,1.08-.718,2.154-1.129,3.229-.157.409-.314.82-.476,1.228-.491,1.223-1,2.442-1.506,3.656q-.163.4-.324.789c-.129.31-.255.619-.378.93v0q-.263.649-.509,1.3v0c-.512,1.346-.972,2.686-1.34,4.023-.1.346-.182.691-.264,1.039a21.78,21.78,0,0,0-.435,2.429,43.218,43.218,0,0,0,.532,10.656l.1.65c.008.057.02.115.028.172.3,1.91.671,3.9,1.093,5.92.093.455.192.907.291,1.365v0c.645,2.936,1.381,5.9,2.152,8.727.088.314.172.625.257.934.7,2.542,1.434,4.959,2.133,7.129q.694,2.159,1.321,4.208v.011c.3.987.592,1.941.871,2.887q.032.107.06.211v.013c.066.212.129.414.187.622C309.707,253.113,310.176,264.32,310.176,264.32Z" transform="translate(-210.659 -113.357)" fill="#fff"/>
                    </g>
                  </g>
                </g>
              </g>
            </g>
          </g>
        </g>
        <g id="Grupo_136763" data-name="Grupo 136763" transform="translate(0.006 1.856)">
          <g id="Grupo_136739" data-name="Grupo 136739" transform="translate(4.138 26.542)">
            <g id="Grupo_136738" data-name="Grupo 136738">
              <path id="Trazado_151653" data-name="Trazado 151653" d="M290.713,135.946q-2.356-.139-4.712-.224l-.058,0c-.273-.009-.545-.02-.818-.025q-7.41-.243-14.823.036l-.872.033h0q-7.866.324-15.689,1.219c-.288.031-.578.064-.869.1h0q-9.324,1.1-18.525,3.013c-.411.085-.822.172-1.234.26-.285.061-.568.121-.85.184q-9.121,1.986-18.043,4.758l-.431-.735q8.9-2.772,18.016-4.764c.285-.066.568-.126.853-.187q9.834-2.113,19.836-3.3h0c.291-.038.578-.072.869-.1q5-.579,10.024-.926,2.861-.2,5.725-.316c.293-.016.584-.027.874-.036q7.426-.287,14.856-.054c.273.008.548.016.825.028q2.469.082,4.936.227C290.628,135.406,290.662,135.681,290.713,135.946Z" transform="translate(-213.783 -134.764)" fill="#e2cec3"/>
            </g>
          </g>
          <g id="Grupo_136741" data-name="Grupo 136741" transform="translate(12.926 42.799)">
            <g id="Grupo_136740" data-name="Grupo 136740">
              <path id="Trazado_151654" data-name="Trazado 151654" d="M298.66,150.284q-4.724-.88-9.5-1.445c-.041-.005-.085-.011-.126-.013-.265-.033-.535-.064-.8-.094q-7.219-.8-14.491-.887c-.285-.005-.573-.008-.858-.011q-7.408-.046-14.8.638c-.28.025-.558.052-.838.08a149.558,149.558,0,0,0-18.232,2.944c-.272.06-.54.123-.812.183a148.416,148.416,0,0,0-17.391,5.17c-.137-.247-.271-.493-.4-.738q2.33-.862,4.692-1.636,6.29-2.071,12.742-3.568c.272-.064.541-.123.812-.184a149.452,149.452,0,0,1,18.3-2.967c.279-.028.559-.056.838-.08q7.4-.694,14.844-.653c.288,0,.573,0,.861.008,4.846.056,9.692.342,14.51.872.267.028.532.058.8.09q4.921.563,9.8,1.462c.023.194.038.389.052.589C298.655,150.122,298.66,150.2,298.66,150.284Z" transform="translate(-220.408 -147.019)" fill="#e2cec3"/>
            </g>
          </g>
          <g id="Grupo_136743" data-name="Grupo 136743" transform="translate(20.888 61.128)">
            <g id="Grupo_136742" data-name="Grupo 136742">
              <path id="Trazado_151655" data-name="Trazado 151655" d="M292.418,161.783q-.163.4-.324.789c-.2-.021-.391-.041-.589-.06-.263-.028-.525-.052-.789-.074q-7.01-.653-14.055-.771h-.02c-.279-.005-.561-.008-.841-.011q-7.026-.082-14.042.375c-.277.017-.556.036-.833.056q-8.662.6-17.24,2.014c-.277.046-.553.09-.83.141q-8.109,1.369-16.075,3.456c-.123-.255-.247-.512-.37-.769.027-.009.057-.015.085-.023q7.971-2.089,16.106-3.462.414-.074.83-.139,8.588-1.415,17.284-2.018l.833-.057q7.022-.456,14.067-.383c.279,0,.561.005.841.011h0q7.05.1,14.08.743c.263.024.527.049.789.077C291.693,161.709,292.055,161.745,292.418,161.783Z" transform="translate(-226.41 -160.836)" fill="#e2cec3"/>
            </g>
          </g>
          <g id="Grupo_136745" data-name="Grupo 136745" transform="translate(28.957 82.289)">
            <g id="Grupo_136744" data-name="Grupo 136744">
              <path id="Trazado_151656" data-name="Trazado 151656" d="M287.812,178.395c.008.057.02.115.028.172-.707-.088-1.418-.167-2.128-.241q-3.478-.36-6.972-.545l-.836-.041a136.3,136.3,0,0,0-13.636.058c-.277.016-.552.029-.828.049a136.312,136.312,0,0,0-16.761,2.055c-.271.048-.54.1-.808.151a135.577,135.577,0,0,0-13.187,3.221c-.06-.269-.123-.54-.191-.814a135.438,135.438,0,0,1,13.243-3.226c.269-.052.54-.1.809-.15A136.57,136.57,0,0,1,263.3,177.04q.416-.028.825-.049,6.817-.374,13.648-.062l.836.041q4.563.233,9.105.775Z" transform="translate(-232.493 -176.788)" fill="#e2cec3"/>
            </g>
          </g>
          <g id="Grupo_136747" data-name="Grupo 136747" transform="translate(29.878 97.853)">
            <g id="Grupo_136746" data-name="Grupo 136746">
              <path id="Trazado_151657" data-name="Trazado 151657" d="M291.148,190.751c.088.314.172.625.257.934q-5.261-.772-10.6-1.324l-.83-.085q-6.825-.673-13.71-.907l-.83-.024a169.59,169.59,0,0,0-17.426.391c-.269.023-.537.041-.807.066a138.381,138.381,0,0,0-14.014,1.848c.021-.275.041-.549.057-.823,3.462-.622,6.946-1.1,10.445-1.447q1.727-.173,3.46-.31l.805-.062q8.66-.647,17.383-.442c.277,0,.553.008.83.017q6.853.171,13.7.819c.279.025.556.053.833.08Q285.939,189.991,291.148,190.751Z" transform="translate(-233.187 -188.52)" fill="#e2cec3"/>
            </g>
          </g>
          <g id="Grupo_136749" data-name="Grupo 136749" transform="translate(26.369 113.318)">
            <g id="Grupo_136748" data-name="Grupo 136748">
              <path id="Trazado_151658" data-name="Trazado 151658" d="M296.842,202.958l-.167-.016c-.275-.025-.552-.049-.825-.077-4.167-.378-8.336-.728-12.51-1.025l-.828-.057c-4.611-.318-9.224-.561-13.839-.688-.277-.011-.552-.016-.828-.021-4.766-.118-9.533-.11-14.3.077q-2.215.086-4.428.227c-.272.017-.541.033-.812.053a146.981,146.981,0,0,0-17.761,2.25q.157-.436.31-.894a148.72,148.72,0,0,1,17.475-2.176c.272-.02.544-.038.812-.056,6.2-.389,12.425-.451,18.641-.3.275.005.551.015.825.023,3.35.093,6.7.247,10.034.443q1.9.111,3.794.244c.276.017.551.036.828.056,4.193.293,8.379.643,12.564,1.021.257.025.512.046.771.072a.343.343,0,0,1,.054.005c0,.069.005.137.005.206v.013C296.721,202.548,296.784,202.75,296.842,202.958Z" transform="translate(-230.542 -200.178)" fill="#e2cec3"/>
            </g>
          </g>
          <g id="Grupo_136751" data-name="Grupo 136751" transform="translate(0 13.075)">
            <g id="Grupo_136750" data-name="Grupo 136750">
              <path id="Trazado_151659" data-name="Trazado 151659" d="M291.794,125.965q-2.352-.181-4.712-.3-2.553-.127-5.109-.192l-.869-.016q-7.79-.157-15.574.324-.448.024-.9.057-8.365.547-16.659,1.82c-.3.044-.6.09-.893.137a193.9,193.9,0,0,0-20.677,4.432c-.285.077-.57.154-.856.233h0q-7.516,2.083-14.842,4.772c-.02-.288-.033-.578-.041-.866q4.891-1.8,9.88-3.319,2.225-.678,4.463-1.3h0c.288-.085.573-.162.858-.241a193.952,193.952,0,0,1,20.754-4.476c.3-.046.594-.094.893-.137q8.322-1.287,16.731-1.848c.3-.023.6-.041.9-.058q7.8-.484,15.631-.345c.29.005.581.011.874.02q5.012.109,10.013.484c.019.1.036.2.052.3C291.745,125.617,291.769,125.792,291.794,125.965Z" transform="translate(-210.664 -124.613)" fill="#e2cec3"/>
            </g>
          </g>
          <g id="Grupo_136753" data-name="Grupo 136753" transform="translate(7.538 11.451)">
            <g id="Grupo_136752" data-name="Grupo 136752">
              <path id="Trazado_151660" data-name="Trazado 151660" d="M253.775,225.631c-.005.275-.016.549-.024.822a148.737,148.737,0,0,1-2.237,20.908l-.768-.354a148.009,148.009,0,0,0,2.193-20.5c.008-.275.019-.547.024-.82q.2-6.089-.117-12.18c-.041-.812-.092-1.622-.146-2.434q-.024-.366-.052-.732-.47-6.459-1.5-12.849c-.044-.275-.089-.545-.135-.82a147.213,147.213,0,0,0-4.867-20.2c-.082-.267-.167-.532-.255-.8a145.183,145.183,0,0,0-6.36-16.278c-.118-.257-.239-.515-.359-.772q-1.088-2.328-2.263-4.616-2.557-4.983-5.485-9.754c-.15-.247-.3-.493-.458-.74q-3.4-5.484-7.268-10.651h0c-.175-.239-.357-.478-.537-.712h0q-3.243-4.292-6.805-8.339c.235-.142.482-.281.734-.422q3.623,4.129,6.933,8.519c.123.162.243.324.363.486.058.078.118.155.174.235q3.868,5.19,7.266,10.7c.154.247.306.493.455.743a148.052,148.052,0,0,1,7.71,14.371c.121.259.241.516.359.773a146.809,146.809,0,0,1,6.378,16.322l.255.8q1.488,4.688,2.653,9.47,1.3,5.319,2.193,10.72c.046.271.09.545.134.818q1.037,6.435,1.5,12.938c.02.241.038.484.053.728Q254,218.309,253.775,225.631Z" transform="translate(-216.346 -123.388)" fill="#e2cec3"/>
            </g>
          </g>
          <g id="Grupo_136755" data-name="Grupo 136755" transform="translate(26.75 1.666)">
            <g id="Grupo_136754" data-name="Grupo 136754">
              <path id="Trazado_151661" data-name="Trazado 151661" d="M270.268,258.445c-.276-.077-.553-.155-.833-.237-.383-9.892-.877-19.782-1.682-29.649-.02-.275-.041-.545-.066-.82q-.239-2.907-.517-5.813-.428-4.453-.966-8.9c-.029-.257-.06-.519-.1-.779q-.891-7.3-2.124-14.551c-.046-.269-.09-.537-.141-.807-1.181-6.78-2.612-13.512-4.36-20.161-.069-.267-.139-.532-.211-.8-1.555-5.821-3.35-11.577-5.43-17.248l-.3-.8-.182-.486c-1.808-4.813-3.826-9.555-6.062-14.19h0c-.123-.26-.247-.517-.375-.775h0q-2.953-6.053-6.425-11.825-.227-.382-.46-.764a137.871,137.871,0,0,0-9.208-13.291c.223-.18.431-.362.627-.537a137.033,137.033,0,0,1,9.473,13.691q.235.382.46.764.663,1.1,1.305,2.221,2.722,4.732,5.1,9.636c.129.26.255.521.378.781q3.45,7.2,6.214,14.694l.3.8q3.108,8.5,5.424,17.27c.072.268.143.535.211.8q1.9,7.221,3.319,14.543.547,2.81,1.033,5.625c.049.269.1.537.143.807q1.242,7.285,2.126,14.617c.033.263.064.523.1.785q.879,7.341,1.478,14.714c.025.271.046.545.069.819C269.385,238.518,269.882,248.488,270.268,258.445Z" transform="translate(-230.829 -116.012)" fill="#e2cec3"/>
            </g>
          </g>
          <g id="Grupo_136757" data-name="Grupo 136757" transform="translate(45.929 0.35)">
            <g id="Grupo_136756" data-name="Grupo 136756">
              <path id="Trazado_151662" data-name="Trazado 151662" d="M245.684,115.842a.411.411,0,0,0,0-.822.411.411,0,0,0,0,.822Z" transform="translate(-245.286 -115.02)" fill="#e2cec3"/>
            </g>
          </g>
          <g id="Grupo_136759" data-name="Grupo 136759" transform="translate(46.172)">
            <g id="Grupo_136758" data-name="Grupo 136758">
              <path id="Trazado_151663" data-name="Trazado 151663" d="M280.782,256.415c.044.529-.779.524-.822,0-.715-8.916-1.445-17.834-2.321-26.737-.025-.275-.053-.545-.08-.82q-.386-3.9-.817-7.795-.37-3.351-.779-6.7c-.036-.291-.07-.581-.109-.874q-.963-7.762-2.187-15.494c-.041-.271-.085-.543-.131-.811-1.113-6.866-2.413-13.7-3.958-20.481-.06-.271-.123-.54-.186-.811q-1.781-7.7-4.016-15.294c-.223-.747-.444-1.488-.675-2.231-.082-.272-.167-.54-.252-.812q-2.4-7.725-5.366-15.261h0c-.1-.269-.208-.537-.318-.8q-2.529-6.314-5.493-12.435c-.129-.265-.257-.529-.389-.792q-3.17-6.451-6.874-12.625c-.1-.175-.211-.353-.321-.529-.068-.118-.142-.237-.214-.356l1.036.121q3.94,6.495,7.272,13.331c.131.264.26.527.386.793q1.874,3.872,3.566,7.833.983,2.3,1.9,4.623c.11.269.216.537.318.807q2.973,7.547,5.355,15.3c.085.272.167.543.249.815q2.652,8.67,4.673,17.525h0c.06.271.123.543.183.811h0q1.866,8.212,3.283,16.512.344,2,.666,4c.046.271.087.54.131.811q1.234,7.746,2.185,15.533.058.44.106.88.886,7.225,1.593,14.465c.027.273.052.548.08.821C279.34,238.622,280.068,247.522,280.782,256.415Z" transform="translate(-245.47 -114.756)" fill="#e2cec3"/>
            </g>
          </g>
          <g id="Grupo_136762" data-name="Grupo 136762" transform="translate(67.001 5.72)">
            <g id="Grupo_136760" data-name="Grupo 136760">
              <path id="Trazado_151664" data-name="Trazado 151664" d="M280.365,177.142v0q-.263.649-.509,1.3-.239-1.184-.491-2.365c-.057-.28-.118-.558-.178-.838q-1.874-8.745-4.265-17.381-.111-.414-.231-.83-2.288-8.176-5.042-16.209c-.094-.275-.19-.548-.285-.825q-2.225-6.421-4.753-12.726c-.107-.272-.216-.543-.329-.814q-1.5-3.717-3.111-7.386c.324.068.645.126.962.17q1.566,3.594,3.023,7.236c.11.271.216.543.324.811q2.306,5.806,4.352,11.707c.118.342.239.687.357,1.031l.279.822q2.738,8.065,5.022,16.274c.08.277.155.557.232.834q2.378,8.616,4.254,17.363c.06.28.121.556.178.836C280.226,176.482,280.3,176.813,280.365,177.142Z" transform="translate(-261.171 -119.068)" fill="#e2cec3"/>
            </g>
            <g id="Grupo_136761" data-name="Grupo 136761" transform="translate(24.551 106.645)">
              <path id="Trazado_151665" data-name="Trazado 151665" d="M280.7,206.966a.411.411,0,0,1-.821,0q-.026-1.934-.08-3.866c-.005-.273-.015-.551-.025-.825-.028-.937-.06-1.877-.1-2.815.3.987.592,1.941.872,2.887a.341.341,0,0,1,.054.005c0,.069.005.137.005.206v.013c.008.2.013.4.02.606Q280.681,205.067,280.7,206.966Z" transform="translate(-279.678 -199.46)" fill="#e2cec3"/>
            </g>
          </g>
        </g>
        <g id="Grupo_136765" data-name="Grupo 136765" transform="translate(10.268 37.654)">
          <g id="Grupo_136764" data-name="Grupo 136764">
            <path id="Trazado_151666" data-name="Trazado 151666" d="M218.512,142.612c15.084,19.519,27.051,42.981,25.437,68.3a63.445,63.445,0,0,1-4.762,20.567c-.247.585.708.84.951.263,10.054-23.915,3.575-50.782-9.03-72.378a163.362,163.362,0,0,0-11.9-17.454c-.387-.5-1.081.2-.7.7Z" transform="translate(-218.4 -141.742)" fill="#110e0a"/>
          </g>
        </g>
      </g>
      <g id="Grupo_136808" data-name="Grupo 136808" transform="translate(33.917 186.922)">
        <g id="Grupo_136780" data-name="Grupo 136780" transform="translate(0 2.49)">
          <path id="Trazado_151671" data-name="Trazado 151671" d="M211.871,281.791s8.2-60.458,22.613-80.642c0,0,37.292,16.323,66.906,7.463,0,0,10.258,32.485,7.641,80.173C309.031,288.786,223.063,334.71,211.871,281.791Z" transform="translate(-211.871 -201.149)" fill="#009580"/>
        </g>
        <path id="Sustracción_32" data-name="Sustracción 32" d="M.979,70.789H.006C-.035,65.411.15,60.156.554,55.17A175.144,175.144,0,0,1,14.545.259.384.384,0,0,1,14.905,0a.559.559,0,0,1,.448.258.512.512,0,0,1,.044.5c-1.115,2.594-2.167,5.181-3.124,7.691A170.042,170.042,0,0,0,1.1,62.679C1,65.308.958,68.036.979,70.788Z" transform="translate(7.454 14.157)" fill="#110e0a" stroke="rgba(0,0,0,0)" stroke-miterlimit="10" stroke-width="1"/>
        <g id="Grupo_136804" data-name="Grupo 136804" transform="translate(55.868 71.12)">
          <g id="Grupo_136803" data-name="Grupo 136803" transform="translate(0)">
            <path id="Trazado_151742" data-name="Trazado 151742" d="M3.194,0c.383,4.433,1.382,17.47,1.382,17.47" transform="translate(-3.194)" fill="none" stroke="#000" stroke-width="1"/>
          </g>
        </g>
        <g id="Grupo_136805" data-name="Grupo 136805" transform="translate(18.081)">
          <path id="Trazado_151681" data-name="Trazado 151681" d="M232.878,199.272s-5.455,4.207-4.908,12.707c-.443.8,29.934,18.216,74.265,6.291,0,0,.986-6.9-4.18-14.387C298.054,203.883,259,213.937,232.878,199.272Z" transform="translate(-227.931 -199.272)" fill="#005f53"/>
        </g>
        <g id="Grupo_136807" data-name="Grupo 136807" transform="translate(15.798 29.547)">
          <g id="Grupo_136806" data-name="Grupo 136806">
            <path id="Trazado_151682" data-name="Trazado 151682" d="M240.691,221.881a52.938,52.938,0,0,1-14.323,21.042c-.474.424.226,1.121.7.7a54,54,0,0,0,14.578-21.477c.22-.6-.734-.854-.952-.263Z" transform="translate(-226.21 -221.545)" fill="#110e0a"/>
          </g>
        </g>
      </g>
      <g id="Grupo_136809" data-name="Grupo 136809" transform="translate(92.466 47.039)">
        <path id="Trazado_151683" data-name="Trazado 151683" d="M261.578,93.824l-3.141,17.195s2.352,2.2,8.369.524l-4.322-17.708Z" transform="translate(-258.437 -93.824)" fill="#fff"/>
      </g>
      <g id="Grupo_136923" data-name="Grupo 136923" transform="translate(52.487 7.823)">
        <g id="Grupo_136922" data-name="Grupo 136922">
          <g id="Grupo_136921" data-name="Grupo 136921">
            <g id="Grupo_136920" data-name="Grupo 136920">
              <g id="Grupo_136815" data-name="Grupo 136815" transform="translate(42.752 29.166)">
                <g id="Grupo_136814" data-name="Grupo 136814">
                  <g id="Grupo_136813" data-name="Grupo 136813">
                    <g id="Grupo_136812" data-name="Grupo 136812">
                      <g id="Grupo_136811" data-name="Grupo 136811">
                        <g id="Grupo_136810" data-name="Grupo 136810">
                          <path id="Trazado_151684" data-name="Trazado 151684" d="M263.417,86.248s2.822.259,3.348,3.864-1.309,9.608-4.951,8.855S263.417,86.248,263.417,86.248Z" transform="translate(-260.528 -86.248)" fill="#722324"/>
                        </g>
                      </g>
                    </g>
                  </g>
                </g>
              </g>
              <g id="Grupo_136828" data-name="Grupo 136828" transform="translate(3.567 42.416)">
                <g id="Grupo_136820" data-name="Grupo 136820" transform="translate(31.982 14.682)">
                  <g id="Grupo_136819" data-name="Grupo 136819">
                    <g id="Grupo_136818" data-name="Grupo 136818">
                      <g id="Grupo_136817" data-name="Grupo 136817">
                        <g id="Grupo_136816" data-name="Grupo 136816">
                          <line id="Línea_214" data-name="Línea 214" y2="0.003" fill="#c9614d"/>
                        </g>
                      </g>
                    </g>
                  </g>
                </g>
                <g id="Grupo_136825" data-name="Grupo 136825" transform="translate(2.083)">
                  <g id="Grupo_136824" data-name="Grupo 136824">
                    <g id="Grupo_136823" data-name="Grupo 136823">
                      <g id="Grupo_136822" data-name="Grupo 136822">
                        <g id="Grupo_136821" data-name="Grupo 136821">
                          <path id="Trazado_151685" data-name="Trazado 151685" d="M232.559,120.768a29.354,29.354,0,0,0,15.416,10.882c13.227,3.8,14.948-3.761,14.948-3.761a25.389,25.389,0,0,1-1.036-5.557c-.056-.732-.088-1.484-.093-2.262a61.418,61.418,0,0,1,.428-7.118c.068-.627.143-1.279.227-1.95l.008-.08c-9.266-2.249-16.837-6.406-22-13.282l-1.388-.837-.934-.568-.176.54.168,1.726C238.945,106.614,237.08,113.319,232.559,120.768Z" transform="translate(-232.559 -96.236)" fill="#c9614d"/>
                        </g>
                      </g>
                    </g>
                  </g>
                </g>
                <g id="Grupo_136827" data-name="Grupo 136827" transform="translate(0 22.444)">
                  <g id="Grupo_136826" data-name="Grupo 136826">
                    <path id="Trazado_151686" data-name="Trazado 151686" d="M231.036,113.91c3.874,8.773,8.067,18.194,16.288,23.757,3.517,2.379,8.363,4.439,12.614,2.968,3.56-1.232,5.731-4.81,6.5-8.335,1.193-5.46-.85-10.949-2.762-15.988-.223-.588-1.178-.333-.951.263,1.625,4.285,3.356,8.8,3.044,13.469-.245,3.665-2.019,7.8-5.533,9.413-4.192,1.922-9.3-.45-12.765-2.884a33.093,33.093,0,0,1-8.6-9.326,99.306,99.306,0,0,1-6.986-13.835c-.256-.58-1.106-.078-.852.5Z" transform="translate(-230.989 -113.155)" fill="#110e0a"/>
                  </g>
                </g>
              </g>
              <g id="Grupo_136834" data-name="Grupo 136834" transform="translate(19.942 50.988)">
                <g id="Grupo_136833" data-name="Grupo 136833">
                  <g id="Grupo_136832" data-name="Grupo 136832">
                    <g id="Grupo_136831" data-name="Grupo 136831">
                      <g id="Grupo_136830" data-name="Grupo 136830">
                        <g id="Grupo_136829" data-name="Grupo 136829">
                          <path id="Trazado_151687" data-name="Trazado 151687" d="M243.333,102.7c1.935,4.44,6.44,12.3,14.942,15.262a61.424,61.424,0,0,1,.428-7.118c.068-.627.143-1.279.227-1.95-.183.02-.371.035-.559.046C253.315,109.245,247.837,106.607,243.333,102.7Z" transform="translate(-243.333 -102.698)" fill="#181709"/>
                        </g>
                      </g>
                    </g>
                  </g>
                </g>
              </g>
              <g id="Grupo_136836" data-name="Grupo 136836" transform="translate(0 1.414)">
                <g id="Grupo_136835" data-name="Grupo 136835">
                  <path id="Trazado_151688" data-name="Trazado 151688" d="M228.321,92.9c-.345,5.026,3.488,11.475,10.05,12.108l.035,0h0l.139.015c.086.3.19.589.3.887.045.129.094.26.145.389a.141.141,0,0,0,.016.036c3.509,8.82,15.332,14.681,21.9,15.31a14.994,14.994,0,0,0,4.476-.271c7.08-1.036,9.033-10.372,8.433-17.653a27.719,27.719,0,0,0-.417-3.006l-.04-.194s3.03-9.917,3.879-14.276c1.642-8.449-2.652-17.442-21.222-20.429S232.17,74.127,230.434,80.19c-.292,1.011-.505,7.133.45,8.188C229.05,89.16,228.437,91.211,228.321,92.9Z" transform="translate(-228.3 -65.327)" fill="#c9614d"/>
                </g>
              </g>
              <g id="Grupo_136848" data-name="Grupo 136848" transform="translate(38.506 29.879)">
                <g id="Grupo_136841" data-name="Grupo 136841" transform="translate(1.181 0.348)">
                  <g id="Grupo_136840" data-name="Grupo 136840">
                    <g id="Grupo_136839" data-name="Grupo 136839">
                      <g id="Grupo_136838" data-name="Grupo 136838">
                        <g id="Grupo_136837" data-name="Grupo 136837">
                          <path id="Trazado_151689" data-name="Trazado 151689" d="M260.581,89.46c-.188,1.23-.86,2.149-1.5,2.051s-1.006-1.174-.817-2.405.858-2.149,1.5-2.051S260.769,88.229,260.581,89.46Z" transform="translate(-258.217 -87.048)" fill="#181709"/>
                        </g>
                      </g>
                    </g>
                  </g>
                </g>
                <g id="Grupo_136847" data-name="Grupo 136847">
                  <g id="Grupo_136846" data-name="Grupo 136846">
                    <g id="Grupo_136845" data-name="Grupo 136845">
                      <g id="Grupo_136844" data-name="Grupo 136844">
                        <g id="Grupo_136843" data-name="Grupo 136843">
                          <g id="Grupo_136842" data-name="Grupo 136842">
                            <path id="Trazado_151690" data-name="Trazado 151690" d="M257.525,88.173a.334.334,0,0,1-.153-.135.329.329,0,0,1,.117-.451c.131-.077,3.241-1.868,5.732.168a.329.329,0,0,1-.418.509c-2.137-1.748-4.952-.126-4.98-.11A.331.331,0,0,1,257.525,88.173Z" transform="translate(-257.326 -86.785)" fill="#181709"/>
                          </g>
                        </g>
                      </g>
                    </g>
                  </g>
                </g>
              </g>
              <g id="Grupo_136859" data-name="Grupo 136859" transform="translate(27.158 28.401)">
                <g id="Grupo_136852" data-name="Grupo 136852" transform="translate(1.777 0.368)">
                  <g id="Grupo_136851" data-name="Grupo 136851">
                    <g id="Grupo_136850" data-name="Grupo 136850">
                      <g id="Grupo_136849" data-name="Grupo 136849">
                        <path id="Trazado_151691" data-name="Trazado 151691" d="M252.476,88.361c-.188,1.231-.858,2.149-1.5,2.052s-1.006-1.175-.817-2.406.86-2.148,1.5-2.051S252.664,87.131,252.476,88.361Z" transform="translate(-250.112 -85.949)" fill="#181709"/>
                      </g>
                    </g>
                  </g>
                </g>
                <g id="Grupo_136858" data-name="Grupo 136858">
                  <g id="Grupo_136857" data-name="Grupo 136857">
                    <g id="Grupo_136856" data-name="Grupo 136856">
                      <g id="Grupo_136855" data-name="Grupo 136855">
                        <g id="Grupo_136854" data-name="Grupo 136854">
                          <g id="Grupo_136853" data-name="Grupo 136853">
                            <path id="Trazado_151692" data-name="Trazado 151692" d="M249.009,87.457a.323.323,0,0,1-.168-.114.329.329,0,0,1,.058-.462c.121-.094,2.978-2.263,5.707-.558a.329.329,0,0,1-.349.558c-2.344-1.465-4.928.5-4.953.521A.33.33,0,0,1,249.009,87.457Z" transform="translate(-248.772 -85.671)" fill="#181709"/>
                          </g>
                        </g>
                      </g>
                    </g>
                  </g>
                </g>
              </g>
              <g id="Grupo_136864" data-name="Grupo 136864" transform="translate(30.438 41.039)">
                <g id="Grupo_136863" data-name="Grupo 136863">
                  <g id="Grupo_136862" data-name="Grupo 136862">
                    <g id="Grupo_136861" data-name="Grupo 136861">
                      <g id="Grupo_136860" data-name="Grupo 136860">
                        <path id="Trazado_151693" data-name="Trazado 151693" d="M251.245,95.2s.009,5.9,4.937,6.462S261.9,97.4,261.9,97.4Z" transform="translate(-251.245 -95.198)" fill="#fff"/>
                      </g>
                    </g>
                  </g>
                </g>
              </g>
              <g id="Grupo_136870" data-name="Grupo 136870" transform="translate(32.734 47.985)">
                <g id="Grupo_136869" data-name="Grupo 136869">
                  <g id="Grupo_136868" data-name="Grupo 136868">
                    <g id="Grupo_136867" data-name="Grupo 136867">
                      <g id="Grupo_136866" data-name="Grupo 136866">
                        <g id="Grupo_136865" data-name="Grupo 136865">
                          <path id="Trazado_151694" data-name="Trazado 151694" d="M254.508,102.118a2.639,2.639,0,0,1-1.458-.991.446.446,0,0,1,.74-.5,1.8,1.8,0,0,0,1.922.621.445.445,0,1,1,.2.868A2.9,2.9,0,0,1,254.508,102.118Z" transform="translate(-252.976 -100.434)" fill="#722324"/>
                        </g>
                      </g>
                    </g>
                  </g>
                </g>
              </g>
              <g id="Grupo_136874" data-name="Grupo 136874" transform="translate(0.14)">
                <g id="Grupo_136873" data-name="Grupo 136873">
                  <g id="Grupo_136872" data-name="Grupo 136872">
                    <g id="Grupo_136871" data-name="Grupo 136871">
                      <path id="Trazado_151695" data-name="Trazado 151695" d="M230.851,88.728a10.916,10.916,0,0,1,1.5.28,11.118,11.118,0,0,1,6.374,4.887c.264-1.709,2.093-9.545,13.535-10.831.164-.019.34-.036.524-.049a9.759,9.759,0,0,0,1.26-4.91c-1.141-4.651,21.256-2.29,22.006,4.85.316,2.991.483,4.94.573,6.2v0a12.114,12.114,0,0,1,.078,2.323s1.978,2.058,2.144-7.774a13.342,13.342,0,0,0-3.322-8.771c-4.469-5.432-12.955-9.328-22.338-10.529-13.894-1.779-24.019,12.82-24.685,18.146S230.851,88.728,230.851,88.728Z" transform="translate(-228.405 -64.261)" fill="#181709"/>
                    </g>
                  </g>
                </g>
              </g>
              <g id="Grupo_136880" data-name="Grupo 136880" transform="translate(41.793 36.806)" opacity="0.5">
                <g id="Grupo_136879" data-name="Grupo 136879">
                  <g id="Grupo_136878" data-name="Grupo 136878">
                    <g id="Grupo_136877" data-name="Grupo 136877">
                      <g id="Grupo_136876" data-name="Grupo 136876">
                        <g id="Grupo_136875" data-name="Grupo 136875">
                          <path id="Trazado_151696" data-name="Trazado 151696" d="M259.805,93.308c-.037.747,1.563,1.453,3.724,1.7a27.711,27.711,0,0,0-.417-3.006C261.223,92.117,259.837,92.627,259.805,93.308Z" transform="translate(-259.805 -92.007)" fill="#722324"/>
                        </g>
                      </g>
                    </g>
                  </g>
                </g>
              </g>
              <g id="Grupo_136882" data-name="Grupo 136882" transform="translate(35.709 31.283)">
                <g id="Grupo_136881" data-name="Grupo 136881">
                  <path id="Trazado_151697" data-name="Trazado 151697" d="M256.743,96.727a.582.582,0,0,0,.314-.056l2.665-1.324a.571.571,0,0,0,.069-.98,8.218,8.218,0,0,1-3.438-6.036.571.571,0,1,0-1.129.167,9.5,9.5,0,0,0,3.168,6.236l-1.843.914a.571.571,0,0,0,.194,1.078Z" transform="translate(-255.218 -87.843)" fill="#722324"/>
                </g>
              </g>
              <g id="Grupo_136887" data-name="Grupo 136887" transform="translate(23.284 22.159)">
                <g id="Grupo_136886" data-name="Grupo 136886">
                  <g id="Grupo_136885" data-name="Grupo 136885">
                    <g id="Grupo_136884" data-name="Grupo 136884">
                      <g id="Grupo_136883" data-name="Grupo 136883">
                        <path id="Trazado_151698" data-name="Trazado 151698" d="M254.9,84.984a1.386,1.386,0,0,0,2.047-1.794A4.025,4.025,0,0,0,254.7,81.48a10.061,10.061,0,0,0-8.852,1.312s5.338.178,7.73,1.368A7.865,7.865,0,0,1,254.9,84.984Z" transform="translate(-245.852 -80.965)" fill="#181709"/>
                      </g>
                    </g>
                  </g>
                </g>
              </g>
              <g id="Grupo_136892" data-name="Grupo 136892" transform="translate(38.875 23.802)">
                <g id="Grupo_136891" data-name="Grupo 136891">
                  <g id="Grupo_136890" data-name="Grupo 136890">
                    <g id="Grupo_136889" data-name="Grupo 136889">
                      <g id="Grupo_136888" data-name="Grupo 136888">
                        <path id="Trazado_151699" data-name="Trazado 151699" d="M259.55,85.567a1.386,1.386,0,0,1-1.52-2.258,4.019,4.019,0,0,1,2.607-1.079c5.216-.362,6.528,3.066,6.528,3.066a18.4,18.4,0,0,0-6.13-.188A7.838,7.838,0,0,0,259.55,85.567Z" transform="translate(-257.605 -82.204)" fill="#181709"/>
                      </g>
                    </g>
                  </g>
                </g>
              </g>
              <g id="Grupo_136898" data-name="Grupo 136898" transform="translate(20.687 35.603)" opacity="0.5">
                <g id="Grupo_136897" data-name="Grupo 136897">
                  <g id="Grupo_136896" data-name="Grupo 136896">
                    <g id="Grupo_136895" data-name="Grupo 136895">
                      <g id="Grupo_136894" data-name="Grupo 136894">
                        <g id="Grupo_136893" data-name="Grupo 136893">
                          <path id="Trazado_151700" data-name="Trazado 151700" d="M253.381,92.9c-.044.852-2.2,1.435-4.821,1.3s-4.708-.931-4.666-1.784,2.2-1.437,4.822-1.3S253.425,92.051,253.381,92.9Z" transform="translate(-243.895 -91.1)" fill="#722324"/>
                        </g>
                      </g>
                    </g>
                  </g>
                </g>
              </g>
              <g id="Grupo_136905" data-name="Grupo 136905" transform="translate(10.073 39.164)">
                <g id="Grupo_136904" data-name="Grupo 136904">
                  <g id="Grupo_136903" data-name="Grupo 136903">
                    <g id="Grupo_136902" data-name="Grupo 136902">
                      <g id="Grupo_136901" data-name="Grupo 136901">
                        <g id="Grupo_136900" data-name="Grupo 136900">
                          <g id="Grupo_136899" data-name="Grupo 136899">
                            <path id="Trazado_151701" data-name="Trazado 151701" d="M235.893,95.715l.033,0h0l.138.015c.086.3.19.589.3.887.046.129.1.26.145.389a.214.214,0,0,0,.016.036,6.053,6.053,0,0,0,2.608-.83,4.825,4.825,0,0,0,1.441-1.36.681.681,0,0,0-1.116-.78,3.66,3.66,0,0,1-1.715,1.305,4.977,4.977,0,0,1-1.21.289A5.848,5.848,0,0,1,235.893,95.715Z" transform="translate(-235.893 -93.785)" fill="#722324"/>
                          </g>
                        </g>
                      </g>
                    </g>
                  </g>
                </g>
              </g>
              <g id="Grupo_136912" data-name="Grupo 136912" transform="translate(3.896 28.08)">
                <g id="Grupo_136911" data-name="Grupo 136911">
                  <g id="Grupo_136910" data-name="Grupo 136910">
                    <g id="Grupo_136909" data-name="Grupo 136909">
                      <g id="Grupo_136908" data-name="Grupo 136908">
                        <g id="Grupo_136907" data-name="Grupo 136907">
                          <g id="Grupo_136906" data-name="Grupo 136906">
                            <path id="Trazado_151702" data-name="Trazado 151702" d="M238.3,94.564a.678.678,0,0,1-.519-.58c-.581-4.792-6.082-7.227-6.138-7.251a.68.68,0,0,1,.539-1.248c.256.11,6.275,2.761,6.95,8.336a.679.679,0,0,1-.594.756A.646.646,0,0,1,238.3,94.564Z" transform="translate(-231.236 -85.429)" fill="#722324"/>
                          </g>
                        </g>
                      </g>
                    </g>
                  </g>
                </g>
              </g>
              <g id="Grupo_136919" data-name="Grupo 136919" transform="translate(4.72 31.338)">
                <g id="Grupo_136918" data-name="Grupo 136918">
                  <g id="Grupo_136917" data-name="Grupo 136917">
                    <g id="Grupo_136916" data-name="Grupo 136916">
                      <g id="Grupo_136915" data-name="Grupo 136915">
                        <g id="Grupo_136914" data-name="Grupo 136914">
                          <g id="Grupo_136913" data-name="Grupo 136913">
                            <path id="Trazado_151703" data-name="Trazado 151703" d="M232.382,90.716a.659.659,0,0,1-.237-.107.679.679,0,0,1-.161-.947,4.664,4.664,0,0,1,4.236-1.744.68.68,0,1,1-.149,1.352,3.308,3.308,0,0,0-2.978,1.179A.677.677,0,0,1,232.382,90.716Z" transform="translate(-231.858 -87.885)" fill="#722324"/>
                          </g>
                        </g>
                      </g>
                    </g>
                  </g>
                </g>
              </g>
            </g>
          </g>
        </g>
      </g>
      <g id="Grupo_136925" data-name="Grupo 136925" transform="translate(58.066 28.197)">
        <g id="Grupo_136924" data-name="Grupo 136924">
          <path id="Trazado_151704" data-name="Trazado 151704" d="M232.505,109.831c3.705,2.737,7.488,4.181,11.577.593.431-5.91-.913-12.647-2.9-16.536-3.261-6.39,2.429-14.268,2.429-14.268-3.625,1.5-7.64,1.459-9.794,5.7C237.415,89.468,235.17,100.735,232.505,109.831Z" transform="translate(-232.505 -79.62)" fill="#181709"/>
        </g>
      </g>
      <g id="Grupo_136926" data-name="Grupo 136926" transform="translate(52.997 45.076)">
        <path id="Trazado_151705" data-name="Trazado 151705" d="M234.728,92.344l-6.044,16.4s1.939,2.571,8.156,1.951l-1.22-18.187Z" transform="translate(-228.684 -92.344)" fill="#fff"/>
      </g>
      <g id="Grupo_136933" data-name="Grupo 136933" transform="translate(0 86.117)">
        <g id="Grupo_136928" data-name="Grupo 136928">
          <g id="Grupo_136927" data-name="Grupo 136927">
            <path id="Trazado_151706" data-name="Trazado 151706" d="M242.026,233.784c.935-2.158.252-6.276,1.794-8.318-2.616-2-3.744-2.938-6.257-5.045q-5.18-4.34-10.039-8.985c-3.233-3.094-6.358-6.279-9.328-9.546q-2.229-2.451-4.319-4.956l-.264-.318c.155-.612.328-1.252.519-1.9.687-2.341,1.587-4.847,2.562-7.368,1.978-5.057,4.309-10.212,6.768-15.339s5.083-10.253,7.786-15.343q2.026-3.82,4.119-7.609l2.1-3.777,1.061-1.872,1.044-1.816.073-.133A12.132,12.132,0,0,0,218.6,129.376L217.44,131.4l-1.12,1.978-2.2,3.953q-2.185,3.96-4.307,7.954c-2.828,5.327-5.58,10.713-8.227,16.213s-5.182,11.109-7.5,17.038c-1.154,2.982-2.258,6.028-3.235,9.348-.487,1.665-.945,3.4-1.331,5.3a37.17,37.17,0,0,0-.779,6.6,11.809,11.809,0,0,0,2.8,7.953l.064.076c.125.142.171.183.251.268l.2.2.379.377.73.706q.722.686,1.435,1.336c.95.876,1.9,1.718,2.853,2.543q2.861,2.477,5.775,4.789c3.886,3.09,7.857,6.005,11.9,8.786s8.164,5.412,12.356,7.9q5.556,3.3,11.259,6.276C239.9,238.614,240.977,236.207,242.026,233.784Z" transform="translate(-188.733 -123.282)" fill="#c9614d"/>
          </g>
        </g>
        <g id="Grupo_136930" data-name="Grupo 136930" transform="translate(14.813 70.577)">
          <g id="Grupo_136929" data-name="Grupo 136929">
            <path id="Trazado_151707" data-name="Trazado 151707" d="M200.436,177.505a14.008,14.008,0,0,1,9.266,2.064c.5.313,1.011-.447.511-.761a15.021,15.021,0,0,0-9.953-2.2c-.585.073-.406.972.176.9Z" transform="translate(-199.9 -176.485)" fill="#722324"/>
          </g>
        </g>
        <g id="Grupo_136932" data-name="Grupo 136932" transform="translate(17.799 67.039)">
          <g id="Grupo_136931" data-name="Grupo 136931">
            <path id="Trazado_151708" data-name="Trazado 151708" d="M202.28,174.564q2.077,2.077,4.156,4.152c.414.415,1.105-.187.687-.606l-4.156-4.152c-.414-.414-1.105.188-.687.606Z" transform="translate(-202.15 -173.818)" fill="#722324"/>
          </g>
        </g>
      </g>
      <g id="Grupo_136958" data-name="Grupo 136958" transform="translate(116.418 183.033)">
        <g id="Grupo_136939" data-name="Grupo 136939">
          <g id="Grupo_136938" data-name="Grupo 136938">
            <g id="Grupo_136937" data-name="Grupo 136937">
              <g id="Grupo_136936" data-name="Grupo 136936">
                <g id="Grupo_136935" data-name="Grupo 136935">
                  <g id="Grupo_136934" data-name="Grupo 136934">
                    <path id="Trazado_151709" data-name="Trazado 151709" d="M279.568,196.342s5.392-.214,6.164,3.673-5.432,10.894-7.778,13.2-1.609-5.408.373-8.225,1.65-4.918,1.65-4.918Z" transform="translate(-276.493 -196.34)" fill="#c9614d"/>
                  </g>
                </g>
              </g>
            </g>
          </g>
        </g>
        <g id="Grupo_136945" data-name="Grupo 136945" transform="translate(3.533 12.715)">
          <g id="Grupo_136944" data-name="Grupo 136944">
            <g id="Grupo_136943" data-name="Grupo 136943">
              <g id="Grupo_136942" data-name="Grupo 136942">
                <g id="Grupo_136941" data-name="Grupo 136941">
                  <g id="Grupo_136940" data-name="Grupo 136940">
                    <path id="Trazado_151710" data-name="Trazado 151710" d="M281.822,205.934s5.8-.359,6.574,3.529-5.434,10.894-7.778,13.2-1.61-5.41.373-8.226,1.388-4.575,1.388-4.575Z" transform="translate(-279.156 -205.925)" fill="#c9614d"/>
                  </g>
                </g>
              </g>
            </g>
          </g>
        </g>
        <g id="Grupo_136951" data-name="Grupo 136951" transform="translate(6.521 18.554)">
          <g id="Grupo_136950" data-name="Grupo 136950">
            <g id="Grupo_136949" data-name="Grupo 136949">
              <g id="Grupo_136948" data-name="Grupo 136948">
                <g id="Grupo_136947" data-name="Grupo 136947">
                  <g id="Grupo_136946" data-name="Grupo 136946">
                    <path id="Trazado_151711" data-name="Trazado 151711" d="M283.764,210.335s5.124-.318,5.808,3.116-4.8,9.623-6.87,11.664-1.422-4.778.329-7.266,1.226-4.042,1.226-4.042Z" transform="translate(-281.409 -210.327)" fill="#c9614d"/>
                  </g>
                </g>
              </g>
            </g>
          </g>
        </g>
        <g id="Grupo_136957" data-name="Grupo 136957" transform="translate(1.282 6.5)">
          <g id="Grupo_136956" data-name="Grupo 136956">
            <g id="Grupo_136955" data-name="Grupo 136955">
              <g id="Grupo_136954" data-name="Grupo 136954">
                <g id="Grupo_136953" data-name="Grupo 136953">
                  <g id="Grupo_136952" data-name="Grupo 136952">
                    <path id="Trazado_151712" data-name="Trazado 151712" d="M280.127,201.249s5.8-.359,6.573,3.527-5.432,10.894-7.778,13.2-1.61-5.41.373-8.225,1.388-4.575,1.388-4.575Z" transform="translate(-277.459 -201.24)" fill="#c9614d"/>
                  </g>
                </g>
              </g>
            </g>
          </g>
        </g>
      </g>
      <g id="Grupo_136983" data-name="Grupo 136983" transform="translate(42.121 187.517)">
        <g id="Grupo_136964" data-name="Grupo 136964" transform="translate(6.939 0)">
          <g id="Grupo_136963" data-name="Grupo 136963">
            <g id="Grupo_136962" data-name="Grupo 136962">
              <g id="Grupo_136961" data-name="Grupo 136961">
                <g id="Grupo_136960" data-name="Grupo 136960">
                  <g id="Grupo_136959" data-name="Grupo 136959">
                    <path id="Trazado_151713" data-name="Trazado 151713" d="M232.91,199.758s-5.951-.626-7.052,3.182,4.486,11.316,6.626,13.817,2.064-5.252.328-8.227-1.224-5.04-1.224-5.04Z" transform="translate(-225.716 -199.72)" fill="#c9614d"/>
                  </g>
                </g>
              </g>
            </g>
          </g>
        </g>
        <g id="Grupo_136970" data-name="Grupo 136970" transform="translate(2.349 12.413)">
          <g id="Grupo_136969" data-name="Grupo 136969">
            <g id="Grupo_136968" data-name="Grupo 136968">
              <g id="Grupo_136967" data-name="Grupo 136967">
                <g id="Grupo_136966" data-name="Grupo 136966">
                  <g id="Grupo_136965" data-name="Grupo 136965">
                    <path id="Trazado_151714" data-name="Trazado 151714" d="M229.248,209.159s-5.749-.852-6.85,2.956,4.486,11.317,6.626,13.819,2.064-5.253.328-8.227-.994-4.677-.994-4.677Z" transform="translate(-222.256 -209.078)" fill="#c9614d"/>
                  </g>
                </g>
              </g>
            </g>
          </g>
        </g>
        <g id="Grupo_136976" data-name="Grupo 136976" transform="translate(0 18.011)">
          <g id="Grupo_136975" data-name="Grupo 136975">
            <g id="Grupo_136974" data-name="Grupo 136974">
              <g id="Grupo_136973" data-name="Grupo 136973">
                <g id="Grupo_136972" data-name="Grupo 136972">
                  <g id="Grupo_136971" data-name="Grupo 136971">
                    <path id="Trazado_151715" data-name="Trazado 151715" d="M226.661,213.37s-5.078-.753-6.05,2.611,3.962,10,5.853,12.206,1.824-4.639.29-7.267-.878-4.131-.878-4.131Z" transform="translate(-220.485 -213.298)" fill="#c9614d"/>
                  </g>
                </g>
              </g>
            </g>
          </g>
        </g>
        <g id="Grupo_136982" data-name="Grupo 136982" transform="translate(5.12 6.412)">
          <g id="Grupo_136981" data-name="Grupo 136981">
            <g id="Grupo_136980" data-name="Grupo 136980">
              <g id="Grupo_136979" data-name="Grupo 136979">
                <g id="Grupo_136978" data-name="Grupo 136978">
                  <g id="Grupo_136977" data-name="Grupo 136977">
                    <path id="Trazado_151716" data-name="Trazado 151716" d="M231.336,204.635s-5.748-.853-6.849,2.956,4.486,11.316,6.626,13.819,2.064-5.253.329-8.227-.995-4.677-.995-4.677Z" transform="translate(-224.345 -204.553)" fill="#c9614d"/>
                  </g>
                </g>
              </g>
            </g>
          </g>
        </g>
      </g>
    </g>
    <g id="_7doA5k" data-name="7doA5k" transform="translate(440.989 15588.529)">
      <g id="Grupo_136988" data-name="Grupo 136988" transform="translate(20 0)">
        <path id="Trazado_151719" data-name="Trazado 151719" d="M1932.446,3040.9v-7.748q0-5.733,0-11.466a9.109,9.109,0,0,0-9.209-9.28c-2.673-.019-5.346,0-8.113,0v.635c0,2.357.011,4.714-.01,7.071a.7.7,0,0,0,.516.784,4.029,4.029,0,0,1,2.383,4.9,4.108,4.108,0,0,1-4.474,2.882,4.064,4.064,0,0,1-3.5-4.253,3.848,3.848,0,0,1,2.518-3.521.745.745,0,0,0,.532-.838q-.014-10.224,0-20.448c0-1.182.29-1.477,1.451-1.478q4.2,0,8.407,0c1.006,0,1.348.334,1.35,1.322q.005,2.771,0,5.542c0,.925-.353,1.286-1.256,1.29q-2.324.009-4.649,0c-.8,0-1.241-.382-1.228-1.046.013-.637.437-.988,1.216-.991,1.269,0,2.539,0,3.843,0v-4.025h-7.056v10.142h.7c2.4,0,4.8-.01,7.2,0a11.2,11.2,0,0,1,11.427,11.459q0,9.841,0,19.683c0,1.176-.293,1.471-1.459,1.472l-21.207,0h-.768v.715q0,7.039,0,14.078c0,1.245-.276,1.515-1.544,1.516q-2.611,0-5.222,0c-1.053,0-1.385-.323-1.385-1.353q0-5.8,0-11.594c0-.085,0-.17,0-.255a.988.988,0,0,1,1.015-1.064.972.972,0,0,1,1.014,1.063c.016,1.826.009,3.652.01,5.478,0,1.866,0,3.732,0,5.641h4.037v-14.23h-.719l-29.233,0c-1.347,0-1.6-.249-1.6-1.586,0-.425,0-.849,0-1.274,0-.875.351-1.313,1.031-1.3.658.01,1,.437,1,1.269,0,.253,0,.507,0,.808h18.315c.01-.2.028-.406.028-.611q0-9.3,0-18.6a9.107,9.107,0,0,0-9.658-9.263,9.34,9.34,0,0,0-4.712,1.571,1.52,1.52,0,0,1-1.158.2c-.827-.3-.838-1.268-.063-1.807a11.49,11.49,0,0,1,6.772-2.028q10.158.023,20.316.009c.3,0,.6-.016.891,0a.961.961,0,0,1,.942,1,.978.978,0,0,1-.925,1.023c-.189.019-.382.009-.573.009l-13.756,0h-.686c.635.6,1.235,1.1,1.751,1.675a11.06,11.06,0,0,1,2.9,7.609q0,9.2,0,18.409v.8Zm-20.381-16.264a2.036,2.036,0,1,0,2.066-2.036A2.035,2.035,0,0,0,1912.065,3024.634Z" transform="translate(-1873.34 -2998.132)" fill="#315976"/>
        <path id="Trazado_151720" data-name="Trazado 151720" d="M1885.368,3054.714c1.249,1.061,2.435,2.054,3.6,3.071.228.2.525.5.516.748a1.613,1.613,0,0,1-.458,1.021.869.869,0,0,1-1.212-.1l-3.114-2.628-.917-.772c-.534.45-1.045.887-1.564,1.317a1.076,1.076,0,0,1-1.686,0c-.505-.42-1.005-.846-1.57-1.322l-8.052,6.817h.8q8.373,0,16.745,0c.874,0,1.356.427,1.283,1.118-.064.6-.475.921-1.227.921q-5.794,0-11.588,0c-2.25,0-4.5,0-6.749,0a2.8,2.8,0,0,1-3.074-3.083q0-7.133,0-14.265a2.785,2.785,0,0,1,2.991-3.035q8.182-.01,16.363,0c.835,0,1.3.413,1.244,1.092a1,1,0,0,1-1.139.945c-1.656.01-3.311,0-4.966,0h-10.684l10.457,8.854,4.108-3.474c.745-.631,1.485-1.267,2.237-1.89a1.013,1.013,0,0,1,1.564.017c.409.489.329,1.034-.261,1.541C1887.832,3052.633,1886.632,3053.642,1885.368,3054.714Zm-7.98,0-8.2-6.935v13.872Z" transform="translate(-1867.106 -3026.176)" fill="#315976"/>
      </g>
    </g>
    <g id="_7doA5k-2" data-name="7doA5k" transform="translate(237.134 15673.282)">
      <g id="Grupo_136988-2" data-name="Grupo 136988" transform="translate(0 0)">
        <path id="Trazado_151719-2" data-name="Trazado 151719" d="M1879.9,3050.1v-9.415q0-6.967,0-13.932a11.069,11.069,0,0,1,11.19-11.276c3.248-.023,6.5,0,9.859,0v.772c0,2.864-.013,5.728.012,8.592a.845.845,0,0,1-.627.952,4.9,4.9,0,0,0-2.9,5.954,4.991,4.991,0,0,0,5.436,3.5,4.937,4.937,0,0,0,4.252-5.168,4.677,4.677,0,0,0-3.059-4.278.9.9,0,0,1-.646-1.019q.017-12.423,0-24.847c0-1.436-.353-1.8-1.763-1.8q-5.108,0-10.215,0c-1.223,0-1.638.406-1.641,1.607q-.007,3.367,0,6.734c0,1.125.428,1.563,1.526,1.567q2.824.011,5.649,0c.978,0,1.508-.465,1.492-1.27-.016-.774-.531-1.2-1.477-1.2-1.542-.005-3.085,0-4.67,0v-4.891h8.573V3013h-.85c-2.914,0-5.829-.011-8.745,0a13.6,13.6,0,0,0-13.886,13.924q0,11.959,0,23.917c0,1.429.356,1.788,1.773,1.788l25.77,0h.934v.869q0,8.554,0,17.106c0,1.512.336,1.841,1.876,1.842q3.173,0,6.346,0c1.28,0,1.683-.393,1.684-1.644q0-7.044,0-14.087c0-.1,0-.207,0-.31a1.2,1.2,0,0,0-1.234-1.293,1.18,1.18,0,0,0-1.232,1.292c-.02,2.219-.011,4.438-.012,6.657,0,2.267,0,4.534,0,6.855h-4.906v-17.292h.874l35.521,0c1.637,0,1.944-.3,1.945-1.928,0-.516,0-1.032,0-1.548,0-1.063-.426-1.6-1.253-1.583-.8.013-1.21.531-1.218,1.542,0,.308,0,.616,0,.982h-22.255c-.012-.245-.034-.494-.034-.743q0-11.3,0-22.6a11.066,11.066,0,0,1,11.736-11.256,11.348,11.348,0,0,1,5.725,1.909,1.849,1.849,0,0,0,1.407.243c1-.362,1.018-1.541.077-2.2a13.962,13.962,0,0,0-8.228-2.464q-12.343.028-24.686.01c-.361,0-.724-.02-1.083.006a1.167,1.167,0,0,0-1.145,1.216,1.189,1.189,0,0,0,1.124,1.243c.23.022.464.011.7.011l16.715,0h.833c-.771.732-1.5,1.337-2.127,2.035a13.44,13.44,0,0,0-3.525,9.246q0,11.184,0,22.37v.977Zm24.765-19.762a2.474,2.474,0,1,1-2.51-2.474A2.473,2.473,0,0,1,1904.663,3030.335Z" transform="translate(-1877.419 -2998.132)" fill="#315976"/>
        <path id="Trazado_151720-2" data-name="Trazado 151720" d="M1872.433,3056.906c-1.518,1.289-2.959,2.5-4.374,3.731-.277.243-.639.611-.627.908a1.962,1.962,0,0,0,.556,1.241,1.056,1.056,0,0,0,1.473-.117q1.892-1.6,3.783-3.193l1.114-.938c.648.547,1.27,1.078,1.9,1.6a1.308,1.308,0,0,0,2.048,0c.615-.51,1.222-1.029,1.908-1.607l9.783,8.283h-.978q-10.174,0-20.347,0c-1.062,0-1.647.519-1.558,1.358.078.735.576,1.119,1.491,1.119q7.04.005,14.08,0c2.734,0,5.467,0,8.2,0a3.408,3.408,0,0,0,3.735-3.746q0-8.667,0-17.333a3.384,3.384,0,0,0-3.634-3.687q-9.942-.012-19.883-.005c-1.014,0-1.575.5-1.511,1.327a1.221,1.221,0,0,0,1.384,1.148c2.011.013,4.023,0,6.035,0h12.982l-12.706,10.758-4.991-4.221c-.906-.766-1.8-1.54-2.718-2.3a1.231,1.231,0,0,0-1.9.021c-.5.594-.4,1.257.317,1.873C1869.44,3054.378,1870.9,3055.6,1872.433,3056.906Zm9.7,0,9.964-8.427v16.856Z" transform="translate(-1820.324 -3022.229)" fill="#315976"/>
      </g>
    </g>
    <g id="Grupo_136997" data-name="Grupo 136997" transform="translate(528.984 15666.835)">
      <path id="Trazado_151727" data-name="Trazado 151727" d="M873.212,1020.04a.931.931,0,0,0,1.832.139,2.691,2.691,0,0,0,.047-.689c0-4.733.009-9.465-.01-14.2,0-.463.1-.587.577-.586q15.935.023,31.868,0c.454,0,.6.083.593.573-.03,2.524-.018,5.048-.012,7.573a1.991,1.991,0,0,0,2.225,2.214c2.545,0,5.09.016,7.635-.012.485-.005.589.132.578.594-.033,1.324-.005,2.65-.015,3.975a.978.978,0,0,0,.528.991c.681.338,1.355-.155,1.363-1.018.013-1.535-.026-3.072.016-4.606a2.7,2.7,0,0,0-.888-2.121q-4.621-4.571-9.2-9.188a3.1,3.1,0,0,0-1.276-.857h-34.6a2.1,2.1,0,0,0-1.3,2.2c.037,4.817.017,9.634.017,14.451A5.031,5.031,0,0,0,873.212,1020.04Zm36.783-13.814,6.95,6.951H912.07c-.568,0-1.136-.009-1.7,0-.256.006-.378-.056-.377-.346C910,1010.615,909.994,1008.395,909.994,1006.226Z" transform="translate(-873.185 -1002.823)" fill="#eaeaea"/>
      <path id="Trazado_151728" data-name="Trazado 151728" d="M956.16,1032.419q-.5-.258-1.015-.5a2.53,2.53,0,0,0-3.64,1.237q-9.277,18.823-18.545,37.651a2.056,2.056,0,0,0-.217,1.1c.044.566.054,1.135.08,1.7h-.014c.035.609.089,1.218.1,1.828a1.358,1.358,0,0,0,.736,1.354,1.413,1.413,0,0,0,1.533-.208q1.411-1.007,2.842-1.986a2.571,2.571,0,0,0,.876-1.043c1.118-2.3,2.256-4.594,3.388-6.889.529-1.073,1.067-2.141,1.583-3.219a.965.965,0,0,0-.471-1.413c-.5-.185-.948.036-1.255.656q-1.342,2.706-2.664,5.422c-.16.33-.292.433-.647.222a10.2,10.2,0,0,0-1.522-.75c-.439-.171-.495-.334-.278-.769,1.808-3.622,3.586-7.258,5.374-10.89q3.486-7.086,6.964-14.176c.2-.408.36-.517.776-.259a10.375,10.375,0,0,0,1.468.718c.388.163.469.327.262.734-.97,1.906-1.9,3.831-2.848,5.75q-2.46,5-4.918,9.993c-.331.673-.2,1.186.338,1.456s1.018.04,1.362-.628c.038-.075.076-.15.113-.225q2.891-5.871,5.781-11.742,2.835-5.758,5.667-11.518A2.531,2.531,0,0,0,956.16,1032.419Zm-21.416,42.146v-2.358l1.985.974Zm3.382-4.485a1.973,1.973,0,0,1,.276.208c-.226.433-.411.829-.638,1.2-.079.128-.228-.018-.329-.066-.6-.287-1.187-.61-1.8-.873-.337-.144-.3-.294-.169-.565.47-.986.461-.991,1.427-.514C937.306,1069.673,937.719,1069.871,938.126,1070.08Zm14.844-29.43c-.067.122-.2.032-.28-.009-.659-.321-1.31-.659-1.974-.97-.208-.1-.2-.18-.129-.379.431-1.147.44-1.157,1.543-.613.376.185.748.38,1.125.562.131.063.256.117.3.252C953.35,1039.9,953.172,1040.284,952.97,1040.65Zm2.817-5.781a3.083,3.083,0,0,1-.136.367c-.336.7-.693,1.381-1.014,2.084-.148.325-.293.375-.611.2-.545-.305-1.114-.573-1.685-.827-.287-.128-.379-.238-.21-.551.387-.716.738-1.451,1.091-2.185a.7.7,0,0,1,1.078-.355c.353.18.711.351,1.065.532A.681.681,0,0,1,955.787,1034.87Z" transform="translate(-901.836 -1016.659)" fill="#eaeaea"/>
      <path id="Trazado_151729" data-name="Trazado 151729" d="M920.375,1065.885a.863.863,0,0,0-.884-.671.85.85,0,0,0-.876.6,2.43,2.43,0,0,0-.065.747c0,5.681-.013,11.363.013,17.043,0,.6-.126.752-.742.751q-20.989-.03-41.978,0c-.588,0-.755-.106-.754-.732q.033-20.168.015-40.336a3.113,3.113,0,0,0-.051-.75.928.928,0,0,0-1.83.14c-.016.167-.009.336-.009.5q0,20.453,0,40.9c0,1.558.6,2.149,2.185,2.149h42.861c1.555,0,2.177-.621,2.177-2.173q0-8.743,0-17.486A2.624,2.624,0,0,0,920.375,1065.885Z" transform="translate(-873.199 -1021.581)" fill="#eaeaea"/>
      <path id="Trazado_151730" data-name="Trazado 151730" d="M881.952,1072.085a1.81,1.81,0,0,0,1.861,1.885q2.491.042,4.984,0a1.846,1.846,0,0,0,1.883-1.943q.019-2.428,0-4.857a1.774,1.774,0,0,0-1.751-1.92q-2.615-.082-5.233,0a1.74,1.74,0,0,0-1.744,1.851c-.02.819,0,1.64,0,2.46C881.948,1070.4,881.931,1071.244,881.952,1072.085Zm1.878-4.581c0-.3.092-.4.4-.4q2.109.019,4.219,0c.281,0,.353.1.351.369-.01,1.406-.017,2.813,0,4.219.006.369-.16.4-.453.394-.693-.015-1.385,0-2.078,0-.672,0-1.344-.017-2.015.007-.338.012-.428-.109-.424-.431Q883.85,1069.582,883.83,1067.5Z" transform="translate(-877.398 -1032.839)" fill="#eaeaea"/>
      <path id="Trazado_151731" data-name="Trazado 151731" d="M881.95,1050.1a1.768,1.768,0,0,0,1.789,1.882q2.584.069,5.171-.006a1.787,1.787,0,0,0,1.769-1.907q.02-2.429,0-4.858a1.835,1.835,0,0,0-1.865-1.956c-1.681-.032-3.364-.034-5.046,0a1.786,1.786,0,0,0-1.817,1.86c-.022.84,0,1.682-.005,2.523C881.947,1048.464,881.932,1049.284,881.95,1050.1Zm1.879-4.582c0-.3.094-.395.4-.392,1.386.014,2.774.018,4.16,0,.349-.005.414.123.411.436q-.021,2.08,0,4.16c0,.3-.082.406-.389.4-.693-.019-1.386-.006-2.08-.006-.672,0-1.345-.012-2.017.005-.328.009-.491-.047-.485-.439C883.849,1048.3,883.843,1046.908,883.829,1045.521Z" transform="translate(-877.398 -1022.266)" fill="#eaeaea"/>
      <path id="Trazado_151732" data-name="Trazado 151732" d="M881.956,1094.121a1.8,1.8,0,0,0,1.855,1.818q2.492.023,4.984,0a1.827,1.827,0,0,0,1.883-1.87q.03-2.491,0-4.984a1.8,1.8,0,0,0-1.871-1.869q-2.492-.027-4.984,0a1.778,1.778,0,0,0-1.872,1.858c-.021.82,0,1.64,0,2.46h0C881.95,1092.4,881.929,1093.259,881.956,1094.121Zm1.873-4.6c0-.322.074-.442.416-.429.693.026,1.386.008,2.08.008s1.388.013,2.08-.006c.3-.008.4.075.393.385-.016,1.408-.013,2.816,0,4.224,0,.27-.066.363-.349.36q-2.112-.02-4.224,0c-.292,0-.4-.065-.395-.379Q883.853,1091.6,883.828,1089.519Z" transform="translate(-877.397 -1043.42)" fill="#eaeaea"/>
      <path id="Trazado_151733" data-name="Trazado 151733" d="M890.671,1023.13a1.794,1.794,0,0,0-1.806-1.811q-2.554-.041-5.109,0a1.764,1.764,0,0,0-1.8,1.8q-.041,2.555,0,5.11a1.772,1.772,0,0,0,1.855,1.81c.82.016,1.64,0,2.461,0h2.461l.126,0a1.809,1.809,0,0,0,1.814-1.8Q890.711,1025.686,890.671,1023.13Zm-2.263,5.025c-.692-.021-1.386-.006-2.079-.006-.714,0-1.428-.01-2.142.005-.27.006-.363-.072-.361-.353q.019-2.11,0-4.22c0-.305.088-.389.389-.386,1.407.015,2.814.012,4.221,0,.267,0,.363.065.36.349q-.021,2.11,0,4.221C888.8,1028.067,888.713,1028.165,888.408,1028.156Z" transform="translate(-877.394 -1011.712)" fill="#eaeaea"/>
      <path id="Trazado_151734" data-name="Trazado 151734" d="M923.589,1054.995a.851.851,0,0,0-.628-.967,2.273,2.273,0,0,0-.681-.069q-9.741-.005-19.483,0a2.675,2.675,0,0,0-.564.03.928.928,0,0,0-.726,1.141,1,1,0,0,0,1.11.722c3.321-.01,6.642-.005,9.962-.005h9.647a3.491,3.491,0,0,0,.567-.012A.868.868,0,0,0,923.589,1054.995Z" transform="translate(-886.794 -1027.424)" fill="#eaeaea"/>
      <path id="Trazado_151735" data-name="Trazado 151735" d="M902.94,1045.814a4.707,4.707,0,0,0-.63.021.862.862,0,0,0-.81.89.849.849,0,0,0,.7.919,2.974,2.974,0,0,0,.687.062q9.659,0,19.317,0a2.678,2.678,0,0,0,.808-.09.924.924,0,0,0-.127-1.766,3.614,3.614,0,0,0-.692-.034q-4.8,0-9.6,0Z" transform="translate(-886.807 -1023.506)" fill="#eaeaea"/>
      <path id="Trazado_151736" data-name="Trazado 151736" d="M921.724,1077.793a.905.905,0,0,0,.99-1.033c-.054-.59-.452-.853-1.315-.853q-9.278,0-18.556,0a2.348,2.348,0,0,0-.745.087.848.848,0,0,0-.6.93.861.861,0,0,0,.727.835,3.568,3.568,0,0,0,.691.037q4.576,0,9.152,0H918.5C919.578,1077.8,920.651,1077.815,921.724,1077.793Z" transform="translate(-886.804 -1037.985)" fill="#eaeaea"/>
      <path id="Trazado_151737" data-name="Trazado 151737" d="M902.553,1069.655c.1,0,.211,0,.315,0q8.585,0,17.17,0a2.045,2.045,0,0,0,.749-.066.925.925,0,0,0,.553-1.276,1.051,1.051,0,0,0-1.1-.554c-2.924.008-5.849,0-8.774,0h-3.787c-1.7,0-3.409-.005-5.113,0a.957.957,0,0,0-1.077.9C901.463,1069.238,901.88,1069.625,902.553,1069.655Z" transform="translate(-886.8 -1034.064)" fill="#eaeaea"/>
      <path id="Trazado_151738" data-name="Trazado 151738" d="M918.39,1091.587a.916.916,0,0,0,.882-.9.931.931,0,0,0-.876-.974,5.046,5.046,0,0,0-.567-.008H903a5.926,5.926,0,0,0-.63.008.927.927,0,0,0-.881.968.911.911,0,0,0,.875.909,3.89,3.89,0,0,0,.5.009h15.016A4.184,4.184,0,0,0,918.39,1091.587Z" transform="translate(-886.802 -1044.62)" fill="#eaeaea"/>
      <path id="Trazado_151739" data-name="Trazado 151739" d="M902.681,1033.907q7.289,0,14.578,0c.78,0,1.237-.359,1.237-.952s-.45-.94-1.238-.941q-3.628,0-7.258,0-3.66,0-7.321,0c-.75,0-1.177.332-1.2.91C901.464,1033.529,901.913,1033.907,902.681,1033.907Z" transform="translate(-886.799 -1016.867)" fill="#eaeaea"/>
      <path id="Trazado_151740" data-name="Trazado 151740" d="M902.245,1025.688a3.557,3.557,0,0,0,.629.026q3.533,0,7.066,0h3.722c1.283,0,2.566.009,3.848-.007a.935.935,0,0,0,.988-.926.976.976,0,0,0-.921-.945,2.142,2.142,0,0,0-.252-.006q-7.349,0-14.7,0a1.5,1.5,0,0,0-.554.089.924.924,0,0,0,.173,1.765Z" transform="translate(-886.803 -1012.93)" fill="#eaeaea"/>
      <path id="Trazado_151741" data-name="Trazado 151741" d="M915.636,1097.925a3.7,3.7,0,0,0-.691-.036q-3,0-5.992,0-2.523,0-5.045,0c-.526,0-1.053-.013-1.576.024a.845.845,0,0,0-.831.867.864.864,0,0,0,.734.955,2.543,2.543,0,0,0,.562.046q6.15,0,12.3,0a2.03,2.03,0,0,0,.681-.089.922.922,0,0,0-.141-1.765Z" transform="translate(-886.807 -1048.56)" fill="#eaeaea"/>
    </g>
    <g id="Grupo_134406" data-name="Grupo 134406" transform="translate(447.615 15503.651)">
      <rect id="Rectángulo_35497" data-name="Rectángulo 35497" width="76.889" height="27.86" rx="4.84" fill="#4b87b2"/>
    </g>
    <g id="Grupo_134421" data-name="Grupo 134421" transform="translate(449.321 15516.807) rotate(51)">
      <g id="Grupo_134420" data-name="Grupo 134420" transform="translate(0)">
        <path id="Trazado_151110" data-name="Trazado 151110" d="M480.041,205.09l-8.7,18.486-8.7-18.486Z" transform="translate(-462.636 -205.09)" fill="#4b87b2"/>
      </g>
    </g>
    <text id="PQRS" transform="translate(458.916 15503.807)" fill="#fff" font-size="20" font-family="Roboto-Black, Roboto" font-weight="800"><tspan x="0" y="21">PQRS</tspan></text>
  </g>
</svg>
